<svg width="40" height="40" viewBox="0 0 40 40" fill="none" xmlns="http://www.w3.org/2000/svg">
<path d="M31.5897 16.9226C25.9659 18.2458 26.4897 11.9604 27.4546 8.65234C28.1439 8.65234 30.0188 9.23126 32.0036 11.5469C33.9885 13.8626 32.5547 16.0955 31.5897 16.9226Z" fill="#0C8AE5"/>
<path d="M31.8103 16.9258C31.6725 16.5123 31.1487 15.3545 30.1562 14.0312" stroke="white" stroke-width="0.827022" stroke-linecap="round"/>
<path d="M13.9538 20.6867L20.9462 12.9583C21.1089 12.7784 21.4064 12.9149 21.3763 13.1555L20.6469 18.9912H25.0669C25.2793 18.9912 25.3935 19.2407 25.2547 19.4015L18.2879 27.4682C18.1275 27.654 17.8235 27.5189 17.8539 27.2753L18.5793 21.4722L14.1172 21.1004C13.9124 21.0833 13.816 20.839 13.9538 20.6867Z" fill="#0C8AE5"/>
<path d="M32.6377 19.8188C32.6377 26.8985 26.8985 32.6377 19.8188 32.6377C12.7392 32.6377 7 26.8985 7 19.8188C7 12.7392 12.7392 7 19.8188 7C21.7385 7 23.5596 7.42197 25.1945 8.17821" stroke="#0C8AE5" stroke-width="1.65404" stroke-linecap="round"/>
</svg>
