<svg width="24" height="24" viewBox="0 0 24 24" fill="none" xmlns="http://www.w3.org/2000/svg">
<path d="M11.5786 19.1579C10.0999 19.1624 8.67357 18.6109 7.58243 17.613C6.49128 16.615 5.81506 15.2434 5.68787 13.7702C5.56069 12.297 5.99183 10.8298 6.8958 9.65957C7.79977 8.48937 9.11052 7.70164 10.5681 7.45263C15.3681 6.52632 16.6313 6.08842 18.3155 4C19.1576 5.68421 19.9997 7.52 19.9997 10.7368C19.9997 15.3684 15.9744 19.1579 11.5786 19.1579Z" stroke="#044E9E" stroke-width="1.68421" stroke-linecap="round" stroke-linejoin="round"/>
<path d="M4 20.0008C4 17.4745 5.55789 15.4871 8.27789 14.9482C10.3158 14.544 12.4211 13.264 13.2632 12.4219" stroke="#044E9E" stroke-width="1.68421" stroke-linecap="round" stroke-linejoin="round"/>
</svg>
