<svg width="40" height="40" viewBox="0 0 40 40" fill="none" xmlns="http://www.w3.org/2000/svg">
<path d="M23 21C23 23.2091 21.2091 25 19 25C16.7909 25 15 23.2091 15 21C15 18.7909 16.7909 17 19 17" stroke="#0C8AE5" stroke-width="2" stroke-linecap="round"/>
<path d="M21.5 11.315C20.701 11.1094 19.8632 11 19 11C13.4772 11 9 15.4772 9 21C9 26.5228 13.4772 31 19 31C24.5228 31 29 26.5228 29 21C29 20.1368 28.8906 19.299 28.685 18.5" stroke="#0C8AE5" stroke-width="2" stroke-linecap="round"/>
<path d="M23 5.50407C21.7215 5.17501 20.3812 5 19 5C10.1634 5 3 12.1634 3 21C3 29.8366 10.1634 37 19 37C27.8366 37 35 29.8366 35 21C35 19.7978 34.8674 18.6265 34.616 17.5" stroke="#0C8AE5" stroke-width="2" stroke-linecap="round"/>
<path d="M28 12V7L31.5 2.5L33 7H37L33 11.5L28 12ZM28 12L19.5 21" stroke="#0C8AE5" stroke-width="1.6" stroke-linecap="round" stroke-linejoin="round"/>
</svg>
