<svg width="24" height="24" viewBox="0 0 24 24" fill="none" xmlns="http://www.w3.org/2000/svg">
<path d="M17.34 3.23828C17.857 3.23828 19.2635 3.67248 20.7521 5.40918C22.0078 6.87408 21.4372 8.29313 20.7941 9.07422C20.6051 8.63421 20.2226 7.89846 19.6154 7.08887C19.5126 6.95211 19.3178 6.92465 19.1808 7.02734C19.0442 7.1302 19.0167 7.32503 19.1193 7.46191C19.7904 8.35682 20.1612 9.14083 20.2863 9.47168C16.233 10.3133 16.6254 5.68861 17.34 3.23828Z" fill="#0C8AE5"/>
<path d="M7.21535 12.265L12.4597 6.46871C12.5817 6.33383 12.8048 6.43614 12.7823 6.61663L12.2352 10.9934H15.5502C15.7095 10.9934 15.7952 11.1805 15.6911 11.3011L10.4659 17.3511C10.3456 17.4905 10.1176 17.3891 10.1405 17.2064L10.6845 12.8541L7.33788 12.5753C7.18432 12.5625 7.11197 12.3792 7.21535 12.265Z" fill="#0C8AE5"/>
<path d="M21.2284 11.6141C21.2284 16.9238 16.9239 21.2282 11.6142 21.2282C6.30442 21.2282 2 16.9238 2 11.6141C2 6.30437 6.30442 2 11.6142 2C13.0539 2 14.4198 2.31647 15.6459 2.88365" stroke="#0C8AE5" stroke-width="1.24053" stroke-linecap="round"/>
</svg>
