<svg width="34" height="44" viewBox="0 0 34 44" fill="none" xmlns="http://www.w3.org/2000/svg">
<circle cx="17" cy="17" r="16.5" fill="white" stroke="#D3EBFD"/>
<path d="M25.7599 21.3354L18.6543 8.90055C18.4994 8.62716 18.2747 8.39977 18.0032 8.24156C17.7317 8.08335 17.4231 8 17.1089 8C16.7946 8 16.486 8.08335 16.2145 8.24156C15.943 8.39977 15.7183 8.62716 15.5634 8.90055L8.45776 21.3354C8.30116 21.6066 8.21904 21.9144 8.21973 22.2276C8.22042 22.5408 8.3039 22.8482 8.46171 23.1187C8.61952 23.3893 8.84604 23.6133 9.11831 23.768C9.39059 23.9228 9.69894 24.0028 10.0121 24H24.2234C24.535 23.9997 24.8411 23.9174 25.1109 23.7613C25.3807 23.6053 25.6047 23.381 25.7604 23.111C25.9161 22.841 25.998 22.5348 25.9979 22.2231C25.9979 21.9115 25.9158 21.6053 25.7599 21.3354Z" fill="#DE3412"/>
<path d="M17.1182 13.3398V16.8927" stroke="white" stroke-width="1.77641" stroke-linecap="round" stroke-linejoin="round"/>
<path d="M17.1182 20.4453H17.127" stroke="white" stroke-width="1.77641" stroke-linecap="round" stroke-linejoin="round"/>
<path d="M20 39.5C20 40.8807 18.8807 42 17.5 42C16.1193 42 15 40.8807 15 39.5C15 38.1193 16.1193 37 17.5 37C18.8807 37 20 38.1193 20 39.5Z" fill="#DE3412"/>
<path d="M20 39.5C20 38.1193 18.8807 37 17.5 37C16.1193 37 15 38.1193 15 39.5C15 40.8807 16.1193 42 17.5 42C18.8807 42 20 40.8807 20 39.5ZM22 39.5C22 41.9853 19.9853 44 17.5 44C15.0147 44 13 41.9853 13 39.5C13 37.0147 15.0147 35 17.5 35C19.9853 35 22 37.0147 22 39.5Z" fill="white"/>
</svg>
