<svg width="40" height="40" viewBox="0 0 40 40" fill="none" xmlns="http://www.w3.org/2000/svg">
<path d="M27.5 19.25C29.9853 19.25 32 21.2648 32 23.75C31.9999 25.3555 31.158 26.7632 29.8926 27.5596L27.125 31.25L24.5713 27.1641C23.6101 26.3388 23.0001 25.1162 23 23.75C23 21.2648 25.0147 19.25 27.5 19.25ZM25.127 8C27.2648 8 28.998 9.73321 28.998 11.8711V14.75H29.7256C30.1532 14.75 30.5 15.0968 30.5 15.5244V17.7256C30.5 18.1061 30.2252 18.4213 29.8633 18.4863C29.1365 18.1736 28.3355 18 27.4941 18C27.2422 18 26.9938 18.0167 26.75 18.0469V14.0244C26.75 13.5969 26.4031 13.25 25.9756 13.25H12.5244C12.097 13.2501 11.75 13.5969 11.75 14.0244V19.2256C11.7501 19.653 12.097 19.9999 12.5244 20H23.0234C22.073 21.0616 21.4942 22.4631 21.4941 24C21.4942 25.6615 22.1722 27.1628 23.2637 28.249H14.75V29C14.7499 29.8283 14.0784 30.5 13.25 30.5C12.4218 30.4998 11.7501 29.8282 11.75 29V28.2461C10.9167 28.2213 10.2483 27.5404 10.248 26.7012V18.5H8.77441C8.34698 18.4998 8 18.1531 8 17.7256V15.5244C8 15.0969 8.34698 14.7502 8.77441 14.75H10.248V11.8711C10.248 9.73332 11.9814 8.00017 14.1191 8H25.127ZM27.502 21.5C26.2593 21.5 25.252 22.5074 25.252 23.75C25.2521 24.9925 26.2594 26 27.502 26C28.7445 26 29.7518 24.9925 29.752 23.75C29.752 22.5074 28.7446 21.5 27.502 21.5ZM13.25 22.25C12.4217 22.2501 11.75 22.9217 11.75 23.75C11.75 24.5783 12.4217 25.2499 13.25 25.25C14.0784 25.25 14.75 24.5784 14.75 23.75C14.75 22.9216 14.0784 22.25 13.25 22.25ZM16.999 10.25C16.585 10.2501 16.2491 10.5859 16.249 11C16.249 11.4141 16.585 11.7499 16.999 11.75H21.499C21.9132 11.75 22.249 11.4142 22.249 11C22.249 10.5858 21.9132 10.25 21.499 10.25H16.999Z" fill="#06A85B"/>
</svg>
