<svg width="40" height="40" viewBox="0 0 40 40" fill="none" xmlns="http://www.w3.org/2000/svg">
<path d="M15.0003 19.1654L18.3337 22.4987L25.8337 14.9986M33.3337 19.9987C33.3337 28.1794 24.4103 34.1294 21.1637 36.0234C20.7947 36.2387 20.6102 36.3464 20.3498 36.4022C20.1477 36.4455 19.853 36.4455 19.6508 36.4022C19.3905 36.3464 19.206 36.2387 18.837 36.0234C15.5903 34.1294 6.66699 28.1794 6.66699 19.9987V12.028C6.66699 10.6955 6.66699 10.0292 6.88493 9.45648C7.07744 8.95055 7.39029 8.49912 7.79643 8.1412C8.25616 7.73605 8.87999 7.50212 10.1277 7.03423L19.064 3.6831C19.4105 3.55317 19.5837 3.4882 19.762 3.46245C19.92 3.4396 20.0807 3.4396 20.2387 3.46245C20.417 3.4882 20.5902 3.55317 20.9367 3.6831L29.873 7.03423C31.1207 7.50212 31.7445 7.73605 32.2042 8.1412C32.6103 8.49912 32.9232 8.95055 33.1157 9.45648C33.3337 10.0292 33.3337 10.6955 33.3337 12.028V19.9987Z" stroke="#0C8AE5" stroke-width="2" stroke-linecap="round" stroke-linejoin="round"/>
</svg>
