<svg width="40" height="40" viewBox="0 0 40 40" fill="none" xmlns="http://www.w3.org/2000/svg">
<path d="M22.4618 21.2299C22.4618 23.0483 20.9877 24.5223 19.1694 24.5223C17.351 24.5223 15.877 23.0483 15.877 21.2299C15.877 19.4116 17.351 17.9375 19.1694 17.9375" stroke="#D63D4A" stroke-width="2" stroke-linecap="round"/>
<path d="M21.2263 13.2554C20.5686 13.0861 19.8791 12.9961 19.1685 12.9961C14.6227 12.9961 10.9375 16.6813 10.9375 21.2271C10.9375 25.773 14.6227 29.4582 19.1685 29.4582C23.7144 29.4582 27.3996 25.773 27.3996 21.2271C27.3996 20.5166 27.3095 19.8271 27.1403 19.1694" stroke="#D63D4A" stroke-width="2" stroke-linecap="round"/>
<path d="M22.4621 8.4735C21.4098 8.20265 20.3065 8.05859 19.1697 8.05859C11.8963 8.05859 6 13.9549 6 21.2283C6 28.5017 11.8963 34.3979 19.1697 34.3979C26.4431 34.3979 32.3393 28.5017 32.3393 21.2283C32.3393 20.2387 32.2302 19.2746 32.0233 18.3474" stroke="#D63D4A" stroke-width="2" stroke-linecap="round"/>
<path d="M26.5784 13.8195V9.70397L29.4593 6L30.6939 9.70397H33.9864L30.6939 13.4079L26.5784 13.8195ZM26.5784 13.8195L19.582 21.2274" stroke="#D63D4A" stroke-width="2" stroke-linecap="round" stroke-linejoin="round"/>
</svg>
