<svg width="34" height="44" viewBox="0 0 34 44" fill="none" xmlns="http://www.w3.org/2000/svg">
<circle cx="17" cy="17" r="16.5" fill="white" stroke="#D3EBFD"/>
<path d="M22.3891 20.8906C23.2583 20.8907 24.0721 21.2415 24.8188 21.8389C25.1542 22.1072 25.2092 22.5962 24.9409 22.9316C24.6726 23.2671 24.1826 23.3211 23.8471 23.0527C23.2979 22.6134 22.816 22.4454 22.3891 22.4453C21.9621 22.4453 21.4797 22.6131 20.9302 23.0527C20.1835 23.6501 19.3695 24.0009 18.5005 24.001C17.6312 24.001 16.8166 23.6502 16.0698 23.0527C15.5203 22.6132 15.0378 22.4453 14.6108 22.4453C14.1839 22.4454 13.7021 22.6134 13.1528 23.0527C12.406 23.6502 11.5914 24.001 10.7221 24.001C9.85295 24.0009 9.03823 23.6501 8.29148 23.0527C7.95649 22.7843 7.90225 22.2952 8.17039 21.96C8.43873 21.6245 8.92871 21.5705 9.26414 21.8389C9.8134 22.2781 10.2952 22.4453 10.7221 22.4453C11.1492 22.4453 11.6316 22.2785 12.1811 21.8389C12.9278 21.2415 13.7417 20.8907 14.6108 20.8906C15.4801 20.8906 16.2947 21.2414 17.0415 21.8389C17.5909 22.2783 18.0735 22.4453 18.5005 22.4453C18.9273 22.4452 19.4093 22.2782 19.9585 21.8389C20.7053 21.2414 21.5199 20.8906 22.3891 20.8906ZM22.3891 15.4453C23.2583 15.4454 24.0721 15.7962 24.8188 16.3936C25.1542 16.6619 25.2092 17.1509 24.9409 17.4863C24.6726 17.8218 24.1826 17.8758 23.8471 17.6074C23.2979 17.1681 22.816 17.0001 22.3891 17C21.9621 17 21.4797 17.1678 20.9302 17.6074C20.1835 18.2047 19.3695 18.5555 18.5005 18.5557C17.6312 18.5557 16.8166 18.2048 16.0698 17.6074C15.5203 17.1679 15.0378 17 14.6108 17C14.1839 17.0001 13.7021 17.1681 13.1528 17.6074C12.406 18.2048 11.5914 18.5557 10.7221 18.5557C9.85295 18.5556 9.03823 18.2048 8.29148 17.6074C7.95649 17.339 7.90225 16.8499 8.17039 16.5146C8.43873 16.1792 8.92871 16.1252 9.26414 16.3936C9.8134 16.8328 10.2952 17 10.7221 17C11.1492 17 11.6316 16.8331 12.1811 16.3936C12.9278 15.7962 13.7417 15.4454 14.6108 15.4453C15.4801 15.4453 16.2947 15.7961 17.0415 16.3936C17.5909 16.833 18.0735 17 18.5005 17C18.9273 16.9999 19.4093 16.8328 19.9585 16.3936C20.7053 15.7961 21.5199 15.4453 22.3891 15.4453ZM22.3891 10C23.2583 10.0001 24.0721 10.3509 24.8188 10.9482C25.1542 11.2166 25.2092 11.7056 24.9409 12.041C24.6726 12.3764 24.1826 12.4305 23.8471 12.1621C23.2979 11.7228 22.816 11.5547 22.3891 11.5547C21.9621 11.5547 21.4797 11.7225 20.9302 12.1621C20.1835 12.7594 19.3695 13.1102 18.5005 13.1104C17.6312 13.1104 16.8166 12.7595 16.0698 12.1621C15.5203 11.7226 15.0378 11.5547 14.6108 11.5547C14.1839 11.5548 13.7021 11.7228 13.1528 12.1621C12.406 12.7595 11.5914 13.1104 10.7221 13.1104C9.85295 13.1103 9.03823 12.7595 8.29148 12.1621C7.95649 11.8937 7.90225 11.4046 8.17039 11.0693C8.43873 10.7339 8.92871 10.6799 9.26414 10.9482C9.8134 11.3875 10.2952 11.5547 10.7221 11.5547C11.1492 11.5547 11.6316 11.3878 12.1811 10.9482C12.9278 10.3509 13.7417 10.0001 14.6108 10C15.4801 10 16.2947 10.3508 17.0415 10.9482C17.5909 11.3877 18.0735 11.5547 18.5005 11.5547C18.9273 11.5546 19.4093 11.3875 19.9585 10.9482C20.7053 10.3508 21.5199 10 22.3891 10Z" fill="#0C8AE5"/>
<path d="M20 39.5C20 40.8807 18.8807 42 17.5 42C16.1193 42 15 40.8807 15 39.5C15 38.1193 16.1193 37 17.5 37C18.8807 37 20 38.1193 20 39.5Z" fill="#0C8AE5"/>
<path d="M20 39.5C20 38.1193 18.8807 37 17.5 37C16.1193 37 15 38.1193 15 39.5C15 40.8807 16.1193 42 17.5 42C18.8807 42 20 40.8807 20 39.5ZM22 39.5C22 41.9853 19.9853 44 17.5 44C15.0147 44 13 41.9853 13 39.5C13 37.0147 15.0147 35 17.5 35C19.9853 35 22 37.0147 22 39.5Z" fill="white"/>
</svg>
