<svg width="24" height="24" viewBox="0 0 24 24" fill="none" xmlns="http://www.w3.org/2000/svg">
<path d="M8.14355 6V11.142" stroke="#044E9E" stroke-width="1.6" stroke-linecap="round" stroke-linejoin="round"/>
<path d="M14.1436 6V11.142" stroke="#044E9E" stroke-width="1.6" stroke-linecap="round" stroke-linejoin="round"/>
<path d="M3 11.1406H19.8" stroke="#044E9E" stroke-width="1.6" stroke-linecap="round" stroke-linejoin="round"/>
<path d="M16.7143 16.284H19.2857C19.2857 16.284 19.7143 14.8271 19.9714 13.8844C20.0571 13.5416 20.1429 13.1988 20.1429 12.856C20.1429 12.5132 20.0571 12.1704 19.9714 11.8276L18.7714 7.5426C18.5143 6.6856 17.6571 6 16.7143 6H4.71429C4.25963 6 3.82359 6.18058 3.5021 6.50202C3.18061 6.82346 3 7.25942 3 7.714V16.284H5.57143" stroke="#044E9E" stroke-width="1.6" stroke-linecap="round" stroke-linejoin="round"/>
<path d="M7.28557 17.9983C8.23235 17.9983 8.99986 17.2309 8.99986 16.2843C8.99986 15.3377 8.23235 14.5703 7.28557 14.5703C6.3388 14.5703 5.57129 15.3377 5.57129 16.2843C5.57129 17.2309 6.3388 17.9983 7.28557 17.9983Z" stroke="#044E9E" stroke-width="1.6" stroke-linecap="round" stroke-linejoin="round"/>
<path d="M9 16.2812H13.2857" stroke="#044E9E" stroke-width="1.6" stroke-linecap="round" stroke-linejoin="round"/>
<path d="M14.9994 17.9983C15.9462 17.9983 16.7137 17.2309 16.7137 16.2843C16.7137 15.3377 15.9462 14.5703 14.9994 14.5703C14.0527 14.5703 13.2852 15.3377 13.2852 16.2843C13.2852 17.2309 14.0527 17.9983 14.9994 17.9983Z" stroke="#044E9E" stroke-width="1.6" stroke-linecap="round" stroke-linejoin="round"/>
</svg>
