<svg width="40" height="40" viewBox="0 0 40 40" fill="none" xmlns="http://www.w3.org/2000/svg">
<path d="M35 8.33203C35 11.0934 28.2843 13.332 20 13.332C11.7157 13.332 5 11.0934 5 8.33203M35 8.33203C35 5.57061 28.2843 3.33203 20 3.33203C11.7157 3.33203 5 5.57061 5 8.33203M35 8.33203V31.6654C35 34.432 28.3333 36.6654 20 36.6654C11.6667 36.6654 5 34.432 5 31.6654V8.33203M35 16.199C35 18.9657 28.3333 21.199 20 21.199C11.6667 21.199 5 18.9657 5 16.199M35 24.0654C35 26.832 28.3333 29.0654 20 29.0654C11.6667 29.0654 5 26.832 5 24.0654" stroke="#0C8AE5" stroke-width="2" stroke-linecap="round" stroke-linejoin="round"/>
</svg>
