<svg width="40" height="40" viewBox="0 0 40 40" fill="none" xmlns="http://www.w3.org/2000/svg">
<path d="M15.5 19.2956L18.5 22.3268L25.25 15.5064M32 20.0534C32 27.4927 23.969 32.9036 21.047 34.6259C20.7149 34.8218 20.5488 34.9197 20.3145 34.9704C20.1326 35.0099 19.8674 35.0099 19.6855 34.9704C19.4512 34.9197 19.2851 34.8218 18.953 34.6259C16.0309 32.9036 8 27.4927 8 20.0534V12.8049C8 11.5932 8 10.9873 8.19614 10.4665C8.36941 10.0064 8.65097 9.59585 9.01649 9.27036C9.43025 8.90193 9.9917 8.68919 11.1146 8.26371L19.1573 5.21624C19.4691 5.09808 19.625 5.039 19.7855 5.01558C19.9277 4.99481 20.0723 4.99481 20.2145 5.01558C20.375 5.039 20.5309 5.09808 20.8427 5.21624L28.8854 8.26371C30.0083 8.68919 30.5697 8.90193 30.9834 9.27036C31.349 9.59585 31.6305 10.0064 31.8038 10.4665C32 10.9873 32 11.5932 32 12.8049V20.0534Z" stroke="#EC8913" stroke-width="2" stroke-linecap="round" stroke-linejoin="round"/>
</svg>
