<svg width="24" height="24" viewBox="0 0 24 24" fill="none" xmlns="http://www.w3.org/2000/svg">
<path d="M11.7513 8.50087C15.4799 8.50087 18.5026 7.49331 18.5026 6.25043C18.5026 5.00755 15.4799 4 11.7513 4C8.02266 4 5 5.00755 5 6.25043C5 7.49331 8.02266 8.50087 11.7513 8.50087Z" stroke="#044E9E" stroke-width="1.50029" stroke-linecap="round" stroke-linejoin="round"/>
<path d="M5.00005 6.25V16.752C4.99587 17.1128 5.25195 17.4686 5.74669 17.7895C6.24144 18.1103 6.96035 18.3868 7.84283 18.5957C8.7253 18.8045 9.74548 18.9396 10.8174 18.9895C11.8892 19.0394 12.9814 19.0027 14.0018 18.8824" stroke="#044E9E" stroke-width="1.50029" stroke-linecap="round" stroke-linejoin="round"/>
<path d="M18.502 6.25V8.50043" stroke="#044E9E" stroke-width="1.50029" stroke-linecap="round" stroke-linejoin="round"/>
<path d="M18.5024 11.5L16.252 15.2507H19.2525L17.0021 19.0014" stroke="#044E9E" stroke-width="1.50029" stroke-linecap="round" stroke-linejoin="round"/>
<path d="M5 11.5C5.00108 11.8507 5.24806 12.1965 5.72123 12.5097C6.1944 12.823 6.88066 13.095 7.72525 13.3042C8.56984 13.5133 9.54939 13.6538 10.5857 13.7143C11.6221 13.7749 12.6865 13.7538 13.6942 13.6529" stroke="#044E9E" stroke-width="1.50029" stroke-linecap="round" stroke-linejoin="round"/>
</svg>
