<svg width="30" height="30" viewBox="0 0 30 30" fill="none" xmlns="http://www.w3.org/2000/svg">
<path d="M18.825 11.265C18.825 11.265 17.3523 2 29.9974 2C29.9974 2 30.3289 12.2725 19.7715 12.04C19.7715 12.04 22.1198 7.7975 25.0628 5.6425C25.0628 5.6425 21.3151 7.26 18.8225 11.2675L18.825 11.265Z" fill="#92C046"></path>
<path d="M13.9665 24.3139C9.42417 24.3139 5.74223 20.6764 5.74223 16.1889C5.74223 11.7014 9.42417 8.06391 13.9665 8.06391C15.1938 8.06391 16.3553 8.33141 17.4004 8.80641C17.6003 7.48891 18.1267 5.91891 19.3641 4.54141C17.7193 3.79641 15.8922 3.37891 13.9665 3.37891C6.80506 3.37891 1 9.11391 1 16.1889C1 23.2639 6.80506 28.9989 13.9665 28.9989C15.6088 28.9989 17.1777 28.6939 18.6227 28.1439L18.7442 22.7989C17.3979 23.7514 15.748 24.3139 13.964 24.3139H13.9665Z" fill="url(#paint0_linear_443_5402)"></path>
<path d="M13.3438 14.7812C13.3438 14.7812 14.07 17.1938 16.1375 18.4763C16.5955 18.7613 17.1269 18.9063 17.6684 18.9063H20.533C20.533 18.9063 20.652 23.4537 20.161 27.4462C20.161 27.4462 20.0294 28.5263 20.4799 28.4338C20.8468 28.3588 23.6127 26.9262 25.0298 24.7212C25.5081 23.9762 25.751 23.1037 25.751 22.2212V14.8038L13.3438 14.7812Z" fill="#92C046"></path>
<defs>
<linearGradient id="paint0_linear_443_5402" x1="1" y1="18.999" x2="19" y2="11.499" gradientUnits="userSpaceOnUse">
<stop stop-color="#175476"></stop>
<stop offset="1" stop-color="#2B9DDC"></stop>
</linearGradient>
</defs>
</svg>