<svg width="60" height="60" viewBox="0 0 60 60" fill="none" xmlns="http://www.w3.org/2000/svg">
<g filter="url(#filter0_d_536_5194)">
<rect x="10" y="8" width="40" height="40" rx="20" fill="#06A85B"></rect>
<rect x="11" y="9" width="38" height="38" rx="19" stroke="white" stroke-width="2"></rect>
</g>
<path d="M37.5 27.249C39.9853 27.249 42 29.2639 42 31.749C41.9999 33.3545 41.158 34.7623 39.8926 35.5586L37.125 39.249L34.5713 35.1631C33.6101 34.3379 33.0001 33.1152 33 31.749C33 29.2639 35.0147 27.249 37.5 27.249ZM35.1289 16C37.2668 16 39 17.7332 39 19.8711V22.75H39.7256C40.1532 22.75 40.5 23.0968 40.5 23.5244V25.7256C40.5 26.1065 40.2247 26.4217 39.8623 26.4863C39.1353 26.1734 38.3339 26 37.4922 26C37.2409 26 36.9932 26.0169 36.75 26.0469V22.0244C36.75 21.5969 36.4031 21.25 35.9756 21.25H22.5244C22.097 21.2501 21.75 21.5969 21.75 22.0244V27.2256C21.7501 27.653 22.097 27.9999 22.5244 28H33.0215C32.0711 29.0616 31.4922 30.4631 31.4922 32C31.4922 33.6615 32.1701 35.1629 33.2617 36.249H24.75V36.999C24.7499 37.8274 24.0784 38.499 23.25 38.499C22.4218 38.4988 21.7501 37.8272 21.75 36.999V36.2461C20.9176 36.2203 20.2503 35.5398 20.25 34.7012V26.5H18.7744C18.347 26.4998 18 26.1531 18 25.7256V23.5244C18 23.0969 18.347 22.7502 18.7744 22.75H20.25V19.8711C20.25 17.7333 21.9834 16.0002 24.1211 16H35.1289ZM37.5 29.499C36.2574 29.499 35.25 30.5064 35.25 31.749C35.2501 32.9916 36.2574 33.999 37.5 33.999C38.7426 33.999 39.7499 32.9916 39.75 31.749C39.75 30.5064 38.7426 29.499 37.5 29.499ZM23.25 30.25C22.4217 30.2501 21.75 30.9217 21.75 31.75C21.75 32.5783 22.4217 33.2499 23.25 33.25C24.0784 33.25 24.75 32.5784 24.75 31.75C24.75 30.9216 24.0784 30.25 23.25 30.25ZM27 18.25C26.5859 18.2501 26.25 18.5859 26.25 19C26.25 19.4141 26.5859 19.7499 27 19.75H31.5C31.9142 19.75 32.25 19.4142 32.25 19C32.25 18.5858 31.9142 18.25 31.5 18.25H27Z" fill="white"></path>
<defs>
<filter id="filter0_d_536_5194" x="0" y="0" width="60" height="60" filterUnits="userSpaceOnUse" color-interpolation-filters="sRGB">
<feFlood flood-opacity="0" result="BackgroundImageFix"></feFlood>
<feColorMatrix in="SourceAlpha" type="matrix" values="0 0 0 0 0 0 0 0 0 0 0 0 0 0 0 0 0 0 127 0" result="hardAlpha"></feColorMatrix>
<feOffset dy="2"></feOffset>
<feGaussianBlur stdDeviation="5"></feGaussianBlur>
<feComposite in2="hardAlpha" operator="out"></feComposite>
<feColorMatrix type="matrix" values="0 0 0 0 0 0 0 0 0 0 0 0 0 0 0 0 0 0 0.25 0"></feColorMatrix>
<feBlend mode="normal" in2="BackgroundImageFix" result="effect1_dropShadow_536_5194"></feBlend>
<feBlend mode="normal" in="SourceGraphic" in2="effect1_dropShadow_536_5194" result="shape"></feBlend>
</filter>
</defs>
</svg>