<svg width="60" height="60" viewBox="0 0 60 60" fill="none" xmlns="http://www.w3.org/2000/svg">
<g filter="url(#filter0_d_536_5164)">
<mask id="path-1-inside-1_536_5164" fill="white">
<path d="M10 26C10 14.9543 18.9543 6 30 6C41.0457 6 50 14.9543 50 26C50 37.0457 41.0457 46 30 46C18.9543 46 10 37.0457 10 26Z"></path>
</mask>
<path d="M10 26C10 14.9543 18.9543 6 30 6C41.0457 6 50 14.9543 50 26C50 37.0457 41.0457 46 30 46C18.9543 46 10 37.0457 10 26Z" fill="white"></path>
<path d="M10 26M50 26M50 26M10 26M30 6M50 26M30 46M10 26M30 46V45C19.5066 45 11 36.4934 11 26H10H9C9 37.598 18.402 47 30 47V46ZM50 26H49C49 36.4934 40.4934 45 30 45V46V47C41.598 47 51 37.598 51 26H50ZM30 6V7C40.4934 7 49 15.5066 49 26H50H51C51 14.402 41.598 5 30 5V6ZM30 6V5C18.402 5 9 14.402 9 26H10H11C11 15.5066 19.5066 7 30 7V6Z" fill="#E4E8EB" mask="url(#path-1-inside-1_536_5164)"></path>
</g>
<path d="M41.6454 23.5007C36.2381 24.773 36.7418 18.7296 37.6695 15.5488C38.3323 15.5488 40.135 16.1055 42.0435 18.332C43.9519 20.5585 42.5733 22.7055 41.6454 23.5007Z" fill="#B3B3B3"></path>
<path d="M40.0265 20.3995C40.2021 20.268 40.4514 20.304 40.5831 20.4796C41.5592 21.7812 42.0847 22.9317 42.2325 23.3751C42.302 23.5834 42.1889 23.8086 41.9806 23.878C41.7724 23.9473 41.5471 23.8352 41.4776 23.627C41.3603 23.2752 40.8785 22.1989 39.9464 20.9561C39.8149 20.7805 39.8509 20.5312 40.0265 20.3995Z" fill="white"></path>
<path d="M24.683 27.1197L31.4063 19.6888C31.5627 19.5158 31.8488 19.647 31.8199 19.8784L31.1185 25.4895H35.3684C35.5726 25.4895 35.6824 25.7294 35.549 25.8839L28.8503 33.6403C28.696 33.8189 28.4038 33.6889 28.4331 33.4547L29.1305 27.875L24.8401 27.5175C24.6432 27.5011 24.5505 27.2662 24.683 27.1197Z" fill="#B3B3B3"></path>
<path d="M17.2031 26.2842C17.2033 19.0381 23.0771 13.1642 30.3232 13.1641C32.2866 13.1641 34.1517 13.5956 35.8262 14.3701C36.2247 14.5545 36.3982 15.0272 36.2139 15.4258C36.0295 15.8243 35.5568 15.9978 35.1582 15.8135C33.6888 15.1338 32.0513 14.7539 30.3232 14.7539C23.9555 14.754 18.7931 19.9164 18.793 26.2842C18.793 32.6521 23.9554 37.8143 30.3232 37.8145C36.6912 37.8145 41.8535 32.6522 41.8535 26.2842C41.8537 25.8451 42.2103 25.4893 42.6494 25.4893C43.0883 25.4895 43.4442 25.8453 43.4443 26.2842C43.4443 33.5305 37.5696 39.4053 30.3232 39.4053C23.077 39.4051 17.2031 33.5304 17.2031 26.2842Z" fill="#B3B3B3"></path>
<defs>
<filter id="filter0_d_536_5164" x="0" y="0" width="60" height="60" filterUnits="userSpaceOnUse" color-interpolation-filters="sRGB">
<feFlood flood-opacity="0" result="BackgroundImageFix"></feFlood>
<feColorMatrix in="SourceAlpha" type="matrix" values="0 0 0 0 0 0 0 0 0 0 0 0 0 0 0 0 0 0 127 0" result="hardAlpha"></feColorMatrix>
<feOffset dy="4"></feOffset>
<feGaussianBlur stdDeviation="5"></feGaussianBlur>
<feComposite in2="hardAlpha" operator="out"></feComposite>
<feColorMatrix type="matrix" values="0 0 0 0 0 0 0 0 0 0 0 0 0 0 0 0 0 0 0.25 0"></feColorMatrix>
<feBlend mode="normal" in2="BackgroundImageFix" result="effect1_dropShadow_536_5164"></feBlend>
<feBlend mode="normal" in="SourceGraphic" in2="effect1_dropShadow_536_5164" result="shape"></feBlend>
</filter>
</defs>
</svg>