<?xml version="1.0" encoding="UTF-8"?>
<svg id="Layer_1" xmlns="http://www.w3.org/2000/svg" version="1.1" viewBox="0 0 391 561">
  <!-- Generator: Adobe Illustrator 30.2.1, SVG Export Plug-In . SVG Version: 2.1.1 Build 1)  -->
  <defs>
    <style>
      .st0 {
        fill: none;
        stroke: #0c8ae5;
        stroke-linecap: round;
        stroke-linejoin: round;
        stroke-width: 2px;
      }
    </style>
  </defs>
  <path class="st0" d="M224,74l3,3h3l3-2,1-6,4-2,4-7-1-6-6-1-3,2-2-2,2-2-1-10-6,1-1,1-8,1-1,2,1,1-4,1-1-7,1-1-1-1v-4l-2-2,2-1,1-4-1,1-2-4-6-5h-2l-6,5v2l3,3-1,2-2,1-2-1,1,2-7,7-2,2-9,1-10,12-3-2-1,2-8-2-1,1h-7l2,2-2,2,2,6h5l1-4,2-1,1,4,2,2-5,5-2-1-2,2h-3l-3,2-5,7h-7l2,2-2,2v2l2,1,1,3-1,1-4-1-1,2h-7l-9-2-4,1-4,5-2,11v11l-2,2-6-1v1l2,2-2,1v2l2,1-2,3h0l-1,1-12,2-4-4h-8l-12,4-1-1,1-5-5-7-4-2h-3l-1,4-2-1,2,11-2,13,3,12,3,4v11l-1,1-2,6-2-2h-4l-2,8-2,2h-3l-3,2-1-1-9,13v5l-4,9v2l2,2,3-2h6l2,2,1,8h2l12-7,5-7,3,1,2,4,8,7h4l2-2,1,1-2,3v3l-5,6,8,3,1,1-2,6v8l2,2-4,3h-6l-2-3h-4l-7.7,13,.7,1,2,1-1,4,6,1-1-1,2-1-1-2,2-2,1,4,2,1,4-1,4,1,1-1,6,6-8,5-5,6-1,6,1,1-1,1,2,2h2l3,4-3,1-3-2-5-9-1,4,4,6,7,4v8l-2,2v2l4,4-2,3,1,11,2,2,7,1,6,9v4l-3,2-2,6,1,10,4,2,3,5v5l-2,3v9l8,7v3l3,1,6,8-4,9,1,1v8l5,8-2,9,1,1v10l2,3v2l1,1v6l4,6h3l1,1h1l1,1h1l4,2,3,4,10,8,1,7,5,5-1,3,3,8,2,1,1,3,9,5,2,1,12,2,7,3,7-2,15,1,10-3h13l5,2h12l1,1,4-1,1-14,2-4-6-5-1-4-4-3-4-1-3,2h-8l-4-1-2-2,1-3-1-1,2-3-1-13,3-5,3,5,2,1,1-1h7l1,1,1-1,2,1,2,5,4,3,6,5,5-1,3-3v-2l6-5h10l1-1v-1l2-2,4-1,10,5h2l2-1,4-3,1-2v-20l2-2-1-6,2-4-2-3h0l-1-4,9-7,8,1,4-3v-11l4-5v-4l7-5-1-6,2-2-1-7-2-1-6,1-1-1,1-9,8-7,5,1,4-6v-5l1-1,2-2-1-4,4-4-2-3,1-15-4-4,1-3h4l-1-4,1-2-4-4-4-13,1-4-1-2-3-1v-2l-4-4h-3l-4-3,1-1-1-7,1-1,3,2,1-4-4-8-3-12-2-4-4-1-6,4-2-1-1,1-6-3v-2l1-4-.3.3-.7.7-2-1v-5l-6-5-2,1-5-5-1-7,3-6-6-5,4-4,9,1,2-1v-3l-6-10-4-1-4,2h-5l-6-7-1-3,3-2h3l2-3v-5l-4-3,1-3-1-2v-4l-4-1-4,2-1-1-1-7-7-9-1-4-8-10-14-34-2-2-1-6-4-4v-5l3-4-7-5,2-3,2,1" vector-effect="non-scaling-stroke"/>
</svg>