<svg width="34" height="34" viewBox="0 0 34 34" fill="none" xmlns="http://www.w3.org/2000/svg">
<circle cx="17" cy="17" r="16.5" fill="white" stroke="#D3EBFD"/>
<g clip-path="url(#clip0_506_10407)">
<path d="M21.7667 24.3333L23.4167 25.7083V26.1667H10.5833V25.7083L12.2333 24.3333H10.5833C10.0971 24.3333 9.63079 24.1402 9.28697 23.7964C8.94315 23.4525 8.75 22.9862 8.75 22.5V12.4167C8.75 11.4442 9.13631 10.5116 9.82394 9.82394C10.5116 9.13631 11.4442 8.75 12.4167 8.75H21.5833C22.5558 8.75 23.4884 9.13631 24.1761 9.82394C24.8637 10.5116 25.25 11.4442 25.25 12.4167V22.5C25.25 22.9862 25.0568 23.4525 24.713 23.7964C24.3692 24.1402 23.9029 24.3333 23.4167 24.3333H21.7667ZM16.0833 17V10.5833H12.4167C11.9304 10.5833 11.4641 10.7765 11.1203 11.1203C10.7765 11.4641 10.5833 11.9304 10.5833 12.4167V17H16.0833ZM17.9167 17H23.4167V12.4167C23.4167 11.9304 23.2235 11.4641 22.8797 11.1203C22.5359 10.7765 22.0696 10.5833 21.5833 10.5833H17.9167V17ZM12.875 22.5C13.2397 22.5 13.5894 22.3551 13.8473 22.0973C14.1051 21.8394 14.25 21.4897 14.25 21.125C14.25 20.7603 14.1051 20.4106 13.8473 20.1527C13.5894 19.8949 13.2397 19.75 12.875 19.75C12.5103 19.75 12.1606 19.8949 11.9027 20.1527C11.6449 20.4106 11.5 20.7603 11.5 21.125C11.5 21.4897 11.6449 21.8394 11.9027 22.0973C12.1606 22.3551 12.5103 22.5 12.875 22.5ZM21.125 22.5C21.4897 22.5 21.8394 22.3551 22.0973 22.0973C22.3551 21.8394 22.5 21.4897 22.5 21.125C22.5 20.7603 22.3551 20.4106 22.0973 20.1527C21.8394 19.8949 21.4897 19.75 21.125 19.75C20.7603 19.75 20.4106 19.8949 20.1527 20.1527C19.8949 20.4106 19.75 20.7603 19.75 21.125C19.75 21.4897 19.8949 21.8394 20.1527 22.0973C20.4106 22.3551 20.7603 22.5 21.125 22.5Z" fill="#0C8AE5"/>
</g>
<defs>
<clipPath id="clip0_506_10407">
<rect width="22" height="22" fill="white" transform="translate(6 6)"/>
</clipPath>
</defs>
</svg>
