<svg width="50" height="60" viewBox="0 0 50 60" fill="none" xmlns="http://www.w3.org/2000/svg">
<path d="M24.6182 0C35.9147 0 45.073 9.15758 45.0732 20.4541C45.0732 28.5977 40.3134 35.6288 33.4248 38.9199C33.4238 38.9201 33.4229 38.9207 33.4219 38.9209C32.9642 39.1395 32.4972 39.3416 32.0215 39.5264C31.3749 39.9051 30.6463 40.4459 30.0781 41.1113L25.1113 49.7158C24.8926 50.0946 24.3456 50.0946 24.127 49.7158L19.1631 41.1211C18.5922 40.4496 17.858 39.904 17.207 39.5234C16.735 39.3398 16.2717 39.1388 15.8174 38.9219C15.8145 38.9214 15.8114 38.9213 15.8086 38.9209L15.8105 38.9189C8.92291 35.6275 4.16406 28.597 4.16406 20.4541C4.16428 9.15771 13.3218 0.000216478 24.6182 0Z" fill="#06A85B"></path>
<circle cx="24.5454" cy="20.3794" r="17.0454" fill="white"></circle>
<path d="M29.709 10C31.663 10 33.2471 11.5841 33.2471 13.5381V16.1689H33.9072C34.298 16.1689 34.6152 16.4861 34.6152 16.877V18.8887C34.6152 19.2347 34.3664 19.5215 34.0381 19.583C33.3745 19.2979 32.6431 19.1397 31.875 19.1396C31.6445 19.1397 31.4173 19.155 31.1943 19.1826V15.5068C31.1943 15.1161 30.8771 14.7988 30.4863 14.7988H18.1924C17.8017 14.799 17.4844 15.1161 17.4844 15.5068V20.2607C17.4845 20.6514 17.8018 20.9677 18.1924 20.9678H27.7881C26.9196 21.9379 26.3907 23.2186 26.3906 24.623C26.3907 26.1418 27.0101 27.5148 28.0078 28.5078H20.2266V29.1934C20.2264 29.9504 19.6125 30.5644 18.8555 30.5645C18.0985 30.5643 17.4846 29.9503 17.4844 29.1934V28.5059C16.7216 28.4844 16.1095 27.8607 16.1094 27.0928V19.5967H14.7627C14.372 19.5966 14.0547 19.2794 14.0547 18.8887V16.877C14.0547 16.4862 14.372 16.1691 14.7627 16.1689H16.1094V13.5381C16.1094 11.5842 17.6936 10.0002 19.6475 10H29.709ZM18.8555 23.0244C18.0984 23.0246 17.4844 23.6385 17.4844 24.3955C17.4845 25.1525 18.0985 25.7665 18.8555 25.7666C19.6126 25.7666 20.2265 25.1526 20.2266 24.3955C20.2265 23.6384 19.6126 23.0244 18.8555 23.0244ZM22.2793 12.0566C21.9008 12.0568 21.5938 12.3637 21.5938 12.7422C21.5938 13.1207 21.9008 13.4276 22.2793 13.4277H26.3926C26.771 13.4276 27.0781 13.1206 27.0781 12.7422C27.0781 12.3637 26.771 12.0568 26.3926 12.0566H22.2793Z" fill="#1F4727"></path>
<path d="M31.8867 20.2822C34.158 20.2824 35.9988 22.1233 35.999 24.3945C35.999 25.8612 35.2308 27.1479 34.0752 27.876L31.5449 31.25L29.2109 27.5176C28.3314 26.7633 27.7735 25.6441 27.7734 24.3945C27.7737 22.1233 29.6153 20.2822 31.8867 20.2822ZM31.8848 22.3389C30.749 22.3389 29.8281 23.2598 29.8281 24.3955C29.8282 25.5311 30.7491 26.4521 31.8848 26.4521C33.0204 26.4521 33.9413 25.5311 33.9414 24.3955C33.9414 23.2598 33.0205 22.3389 31.8848 22.3389Z" fill="#08A85B"></path>
<g filter="url(#filter0_f_536_2320)">
<ellipse cx="24.5" cy="48" rx="11.5" ry="2" fill="#26B55C"></ellipse>
</g>
<defs>
<filter id="filter0_f_536_2320" x="5" y="38" width="39" height="20" filterUnits="userSpaceOnUse" color-interpolation-filters="sRGB">
<feFlood flood-opacity="0" result="BackgroundImageFix"></feFlood>
<feBlend mode="normal" in="SourceGraphic" in2="BackgroundImageFix" result="shape"></feBlend>
<feGaussianBlur stdDeviation="4" result="effect1_foregroundBlur_536_2320"></feGaussianBlur>
</filter>
</defs>
</svg>