<?xml version="1.0" encoding="UTF-8"?>
<svg id="Layer_2" data-name="Layer 2" xmlns="http://www.w3.org/2000/svg" viewBox="0 0 517.54 825.02">
  <defs>
    <style>
      .cls-1 {
        fill: #feca80;
      }

      .cls-2 {
        fill: #ef7c49;
      }

      .cls-3 {
        fill: #d72027;
      }

      .cls-4 {
        fill: #c8e2ad;
      }

      .cls-5 {
        fill: #fcf7c1;
      }

      .cls-6 {
        fill: #80bfab;
      }

      .cls-7 {
        fill: none;
        stroke: #a5a4a4;
        stroke-linecap: round;
        stroke-linejoin: round;
        stroke-width: 2px;
      }

      .cls-8 {
        fill: #2b83bb;
      }
    </style>
  </defs>
  <g id="Layer_2-2" data-name="Layer 2">
    <g>
      <path class="cls-4" d="M332.24,116.03l-17.97,6.76-9.85,1.53-13.57,4.86-14.1-8.99-5.69,2.61-.46,4.36-3.64,5.88-1.29,17.66-7.41,10.5,8.7,4.1v9.3s3.88,3.28,3.52,4.67c-.36,1.39.02,7.09.02,7.09l7.46,7.13-2.14,6.06s4.63,7.49,5.35,10.34,9.58-2.85,9.6,0l4.92-1.4,1.72,9.03h17.77l7.13-9.03s3.33-1.43,4.28,0c.34.51,6.6,10.46,14.46,22.97,10.57-7.05,26.3-17.53,27.09-18,1.19-.71,7.13,1.9,7.13,1.9l4.06-1.35c-18.58-27.46-45.29-89.51-46.28-96.56l-.82-1.41Z"/>
      <path class="cls-5" d="M399.23,264.15c3.21-3.8,12.12-2.73,11.05-9.39-1.07-6.65-7.96,1.31-11.64-9.15-3.68-10.46-7.84-8.55-9.27-11.05-1.43-2.5-.95-9.86-.95-9.86-2.56-2.13-5.57-5.87-8.84-10.7l-4.06,1.35s-5.94-2.61-7.13-1.9c-.79.47-16.52,10.95-27.09,18,13.97,22.23,33.03,52.57,33.03,52.57l24.13-11.56c-1.14-3.4-.81-6.44.77-8.31Z"/>
      <path class="cls-2" d="M402.4,346.77h16.16l5.24-2.92c-3.68-5.22-6.4-13.92-4.49-17.56,2.61-4.99,4.16-10.46-1.9-11.41-6.06-.95-2.73-6.18-2.73-6.18,0,0,1.43-8.2,14.38-7.96s7.6.71,4.87-8.32c-2.73-9.03-6.77-8.55-10.46-9.15s-7.25,6.65-16.4,0c-4.66-3.39-7.43-7.29-8.61-10.82l-24.13,11.56-28.75,17.61,13.58,12.83,15.17,18.37,3.04,3.52,15.18,2.35,9.86,8.08Z"/>
      <path class="cls-3" d="M516.26,486.92c.71-1.07.18-6.77-2.49-9.27-2.67-2.5-2.67-3.39-4.81-6.77-2.14-3.39-2.14-16.57-8.2-28.34-6.06-11.76-9.92-7.07-14.08-8.14-4.16-1.07.24-3.21-3.45-5.35s-2.26-5.11-2.61-12.62c-.36-7.51,7.49-3.78,8.32-5.2.83-1.43-9.86-32.44-13.54-37.66-3.68-5.23-3.92-.48-7.25,3.38s-2.61.78-4.75,0c-2.14-.78-6.89,1.25-10.93-3.03-4.04-4.28-2.85,6.89-7.13,1.54-4.28-5.35,4.28-10.34-1.31-11.88s.24-4.4-2.38-7.96c-2.61-3.56-2.5,1.43-5.23-5.11-2.73-6.53-2.97-.71-8.32-2.73-1.44-.55-2.94-2.01-4.3-3.94l-5.24,2.92h-16.16l-9.86-8.08-15.18-2.35,10.83,12.55v7.01l-11.08,12.83-16.16,6.65-15.39,3.8-7.04,9.5h-9.89l-9.98,10.46-8.55,6.65v6.59l-8.08,19.07-2.08,1.82-4.01,3.51h17.97s1.9,4.65,5.23,4.65h16.51s10.11,10.25,11.53,9.16,14.73-2.51,14.73-2.51v-2.38l15.21,4.89,11.35-2.51,7.18-4.36v-5.15l6.18-5.7h12.83s-.48,11.41,0,12.83c.48,1.43,4.28,4.97,4.28,4.97,0,0-2.38,5.49-3.33,10.72-.95,5.23-.95,28.99-.95,28.99l-4.28,12.83.48,9.98,8.08,5.7h6.55l8.19,4.75,2.38-5.7,26.61.95-22.81,22.81-.95,7.13,9.98,9.98h5.7l8.08-7.6,23.76,7.6,2.77,7.43c1.78-2.01,4.29-3.77,9.63-2.09,9.03,2.85,8.08-13.78,7.6-17.82s3.09-1.54,3.8-2.61c.71-1.07,2.38-2.26,1.78-4.87-.59-2.61-4.16-3.56.59-5.47s2.61-4.4,1.19-6.18c-1.43-1.78-.01-10.65-.01-10.65,0,0,.34-15.22-1.44-17.72s-2.14-5.7-3.39-8.91c-1.25-3.21,6.59-1.96,7.31-3.03Z"/>
      <path class="cls-6" d="M214.17,117.74l27.62,11.58,12.27-5.87.2-2.95-3.65-5.97,6.85-10.35h0c-.65.87-1.33,1.27-1.97.84-2.67-1.78-3.39-6.42-5.7-3.92-2.32,2.5-5.17,10.51-5.17,10.51l-10.51-4.63s-.18-16.4-1.43-18c-1.25-1.6-4.1-2.85-4.1-2.85l-10.69-.71-1.52-2.29c-1.54.14-3.44.26-5.99.59-8.2,1.07-8.64,8.64-9.71,10.96s-2.85,11.5-3.92,13.46c-.76,1.39-3.04.9-4.5,1.55l14.7,8.04h7.22Z"/>
      <path class="cls-1" d="M254.03,124.01l.04-.55-12.27,5.87-27.62-11.58h-7.22l-14.7-8.04c-.59.26-1.05.71-1.21,1.57-.53,2.94-5.97,6.95-5.97,6.95-7.34,2.73-14.94-.06-14.94-.06,0,0-5.52-3.03-14.61-4.28-3.66-.5-6.77,1.28-9.18,3.58l22.03,8.3h0s77.48,29.06,77.48,29.06l-.22-.1.22.1h0s11.47,5.41,11.47,5.41l-2-20.69-1.29-15.54Z"/>
      <path class="cls-5" d="M305.01,124.08l9.85-1.53,17.13-6.15,1.35-.12c-1.16-8.29.09-1.69-3.83-3.56-3.92-1.87-3.65-5.44.8-13.19,4.46-7.75-5.61-1.96-9-9.71-3.39-7.75,9.98-16.66,10.16-8.82.18,7.84,13.9,8.91,11.94-.71-1.96-9.62,2.41-7.75,5.61-8.55s4.9-4.19,5.97-10.69-2.85-7.93-5.97-8.2c-3.12-.27-5.44,9.45-7.09,4.37-1.65-5.08-5.48-2.14-6.46-1.07-.98,1.07-4.63,5.79-6.77,4.63-2.14-1.16-1.25-2.76-.98-5.97.07-.79-.12-1.4-.38-1.97l-8.03,2.11-36.32,20.44-6.93-5.7-1.43,3.33-9.03,1.9-5.79,1.75c.04.18.06.3.06.3l-4.57,1.06s6.28,11.68,6.17,14c-.08,1.76-1.95,9.38-4.02,12.16h0s-6.85,10.36-6.85,10.36l3.65,5.97-.2,2.95,3.25,36.77,1.54.73,7.41-10.5,1.29-17.66,3.64-5.88.46-4.36,5.69-2.61,14.1,8.99,13.57-4.86,9.85-1.53"/>
      <path class="cls-4" d="M228.23,86.49s2.85,1.25,4.1,2.85c1.25,1.6,1.43,18,1.43,18l10.51,4.63s2.85-8.02,5.17-10.51c2.32-2.49,3.03,2.14,5.7,3.92.64.43,1.32.03,1.97-.85l4.02-12.16-6.17-14,4.51-1.36c-.33-1.57-1.95-9.28-1.95-11.2,0-2.14,2.02-2.85,2.02-2.85,0,0,13.43-14.26,15.68-15.45,2.26-1.19,5.82-2.26,6.65-3.8.83-1.54-.71-7.37-.59-8.2.12-.83,4.04-3.45,4.51-4.99.48-1.54.71-4.28.71-4.28l4.51-2.61-2.7-4.92c-.7.42-1.36.74-1.84.82-1.69.27-7.75,5.11-8.64,7.25s-7.75,10.34-12.39,10.07-7.31.71-12.39,2.76c-5.08,2.05-25.13,35.29-29.23,39.92-2.82,3.19-4.42,3.64-7.82,3.95l1.52,2.29,10.69.71Z"/>
      <path class="cls-8" d="M286.5,26.25s-.24,2.73-.71,4.28c-.48,1.54-4.4,4.16-4.51,4.99-.12.83,1.43,6.65.59,8.2-.83,1.54-4.4,2.61-6.65,3.8-2.26,1.19-15.68,15.45-15.68,15.45,0,0-2.02.71-2.02,2.85,0,1.92,1.62,9.62,1.95,11.2l5.79-1.75,9.03-1.9,1.43-3.33,6.93,5.7,36.32-20.44,8.03-2.11c-.79-1.75-2.27-3.11.83-8.01,4.1-6.5,6.5-3.92,8.02-2.67,1.51,1.25-.62,5.44,3.21,4.46,3.83-.98.62-3.83.36-5.35-.27-1.51,1.25-1.07,2.05-1.96.8-.89-2.32-4.01-3.48-5.44s-5.08,1.69-6.33,3.3c-1.25,1.6-1.34.18-4.46.62-3.12.45-1.4,3.98-3.71,1.69-2.32-2.29-1.99-2.11-4.49-1.31-2.5.8-1.04,6.74-1.1,7.69s-2.85,2.2-5.94,3.12c-3.09.92-2.61-2.44-2.61-3.98s-1.1-2.41-3.12-3.45c-2.02-1.04,1.81-4.51,1.99-6.71.18-2.2-3.3-3.03-4.6-3.33-1.31-.3-2.76-3.68,1.81-4.57,4.57-.89,5.05-3.62,2.94-3.56-2.11.06-3.09-1.43-3.09-1.43,0,0-2.32-3.48,1.07-5.35,3.39-1.87,4.1-4.54,2.58-4.54s-3.12-.45-2.94-3.03c.18-2.58-5.7-5.79-6.86-6.68-1.16-.89-1.51-3.56-8.2.45-6.68,4.01-2.58,5.26.09,5.79s1.07,7.04,1.07,7.04c0,0-2.01,1.69-3.77,2.74l2.7,4.92-4.51,2.61Z"/>
      <path class="cls-1" d="M168.9,184.33l13.43,2.14,17.11,9.8-2.57,15.86s-2.42,8.91-5.98,9.62c-3.56.71-5.7,6.77-5.7,6.77l-1.43,4.28-10.69,2.85-7.56,4.28s-7.41-.36-7.41-1.43-6.42-8.91-6.42-8.91l-12.91-23.17s-10.26,8.2-9.19,9.98c1.07,1.78,4.99,1.07,5.7,2.5.71,1.43-1.78,6.42-1.78,6.42l1.07,4.63s-6.77-4.63-8.2-3.21c-1.43,1.43-2.85,4.63-2.85,5.7s2.49,6.06,2.49,6.06l-2.49,1.43-5.7-2.14s-.71,5.7-3.21,7.49c-2.5,1.78-3.92,4.99-3.92,4.99v11.05s3.92,9.98,6.77,10.69c2.85.71-3.56,10.69-3.56,10.69,0,0,.71,1.78,1.43,2.85.71,1.07,4.63,4.99,3.21,6.06-1.43,1.07-9.98,4.99-7.84,7.49,2.14,2.5,2.85,5.7,3.56,8.2s-.71,7.49-.71,7.49c0,0-3.21,0-4.99,2.14-1.53,1.84-5.16,6.03-8.19,8.08l7.83,4.03h4.63l18.18,16.75,10.51,3.21s9.11-5.7,8.39-6.77c-.72-1.07.04-11.41.04-11.41,0,0,6.01-4.99,7.43-5.35s5.35,3.21,5.35,3.21l7.13-1.07,4.63-3.21,24.95,1.07,18.55-15.72-2.15-18.85,4.33-14.62-.54-19.46,11.9-4.78,5.7-4.99-1.78-10.37,9.75-15.42-2.62-1.66,2.85-6.42s5.6-8.2,6.19-9.62c.58-1.43-4.41-21.03-4.41-21.03,0,0,.71-8.55-.36-9.27-.24-.16-5.67-3.29-10.78-6.23-3.66-2.11-7.16-4.12-8.45-4.86l-.88.04-16.84,17-13.19-2.14-3.03-6.59v-5.7l-5.35-2.5-12.83-1.49-1.11-6.53,6.81-11.76-13.19-8.91v-7.48l-22.03-8.3c-3.58,3.42-5.62,8-5.62,8l-3.22,52.72,26.05,11.02,5.7-5.23Z"/>
      <path class="cls-2" d="M268.94,231.03c2.49,1.43,2.85,8.91,2.85,8.91h3.92l12.83-19.25,2.48-10.69c-.02-2.85-8.89,2.85-9.6,0s-5.35-10.34-5.35-10.34l2.14-6.06-7.46-7.13s-.38-5.7-.02-7.09c.36-1.39-3.52-4.67-3.52-4.67v-9.3l-21.71-10.23-8.15,9.25-4.1-2.5-5.62.25c1.3.75,4.79,2.75,8.45,4.86,5.1,2.94,10.53,6.07,10.78,6.23,1.07.71.36,9.27.36,9.27,0,0,4.99,19.6,4.41,21.03-.58,1.43-6.19,9.62-6.19,9.62l-2.85,6.42,2.62,1.66,9.77,6.18s11.49,2.14,13.98,3.56Z"/>
      <path class="cls-8" d="M237.51,164.43l8.15-9.25h0s-77.48-29.06-77.48-29.06h0s.51.19.51.19l-.51-.19v7.48l13.19,8.91-6.81,11.76,1.11,6.53,12.83,1.49,5.35,2.5v5.7l3.03,6.59,13.19,2.14,16.84-17-1.51.07,1.51-.07.35-.35s.2.11.54.31l5.62-.25,4.1,2.5Z"/>
      <path class="cls-6" d="M341.3,231.56c-7.86-12.51-14.12-22.45-14.46-22.97-.95-1.43-4.28,0-4.28,0l-7.13,9.03h-17.77l-1.72-9.03,1.72,34.69,5.32,5.5,5.8,17.79,12.05,12.61h0s0,0,0,0l24.74,22.56,28.75-17.61s-19.05-30.34-33.03-52.57"/>
      <path class="cls-5" d="M98.92,325.84c.45-.2.94-.49,1.44-.83l-3.07-1.58,3.07,1.58c3.03-2.05,6.66-6.25,8.19-8.08,1.78-2.14,4.99-2.14,4.99-2.14,0,0,1.43-4.99.71-7.49s-1.43-5.7-3.56-8.2c-2.14-2.5,6.42-6.42,7.84-7.49,1.43-1.07-2.49-4.99-3.21-6.06-.71-1.07-1.43-2.85-1.43-2.85,0,0,6.42-9.98,3.56-10.69-2.85-.71-6.77-10.69-6.77-10.69v-11.05s1.43-3.21,3.92-4.99c2.49-1.78,3.21-7.49,3.21-7.49l5.7,2.14,2.49-1.43s-2.49-4.99-2.49-6.06,1.43-4.28,2.85-5.7c1.43-1.43,8.2,3.21,8.2,3.21l-1.07-4.63s2.49-4.99,1.78-6.42c-.71-1.43-4.63-.71-5.7-2.5-1.07-1.78,9.19-9.98,9.19-9.98l12.91,23.17s6.42,7.84,6.42,8.91,7.41,1.43,7.41,1.43l7.56-4.28,10.69-2.85,1.43-4.28s2.14-6.06,5.7-6.77c3.56-.71,5.98-9.62,5.98-9.62l2.57-15.86-17.11-9.8-13.43-2.14-5.7,5.23-26.05-11.02-.52,8.58-3.39,2.67-4.28-4.46-.36-4.81-5.88.18-5.35-4.1-3.74,2.32-14.44.53-2.5-3.74s-5.52-.71-5.7-1.25c-.18-.53-3.74-1.43-3.74-1.43l-6.77,4.99-8.2-.18-2.85,3.92-7.31.89.18-12.12c-1.43,0-5.17-6.95-5.17-6.95l-3.39-4.99-4.63-.89-.89,4.99-4.28,1.43.89,21.92s-1.6,5.52-2.14,7.49,3.03,6.77,3.03,6.77l2.67,17.82,4.28,7.13-1.25.71-.18,5.17,2.14,1.6.53,14.44-3.39-.18-.53,11.41-3.92.18-1.6-2.32-1.43-3.74-4.28-.89-.36,2.32-2.32,3.21-.18,9.45s4.1-.71-7.31,1.78c-11.41,2.5-22.63,22.81-21.56,27.27,1.07,4.46-6.06,17.64-6.06,17.64l18.36-.71,3.39,7.66v9.27l16.04-9.98,5.88-1.78,1.43-2.5v-3.92l3.92-5.35,5.17,3.56,4.28-.18,3.03,3.03,1.96,5.35,7.13,8.02,6.06-.18,4.1-4.63,4.28,1.96,1.25,9.27-5.88,1.07.18,6.77-4.63.89-2.32,3.39,2.67,2.32h5.7l4.18,1.34c4.23-9.04,10.01-21.35,11.76-22.13Z"/>
      <path class="cls-8" d="M311.06,705.8v-6.18l-2.85-9.5-2.85-13.78.95-28.51,8.08-2.38,8.55-8.55,7.13-9.5v-3.33l-27.73-9.03s-12.19-15.68-12.19-18.53,2.38-20.91,2.38-20.91l-7.6-17.11,2.07-7.6-8.72-14.26-2.38-9.5s9.5-27.56,10.93-29.94-6.65-22.34-6.65-22.34l-.03-24.12-31.32-17.7-10-3.86v-4.22l-3.33-8.37-14.73-21.72-1.9-23.14-2.38-3.8,4.75-6.65-4.75-18.53,12.78-18.6-.2-4.67-10.99-8.93-.09-.75-18.55,15.72-24.95-1.07-4.63,3.21-7.13,1.07s-3.92-3.56-5.35-3.21-7.43,5.35-7.43,5.35c0,0-.76,10.34-.04,11.41.72,1.07-8.39,6.77-8.39,6.77l-10.51-3.21-18.18-16.75h-4.63l-7.83-4.03c-.5.34-.98.62-1.44.83-1.75.78-7.53,13.1-11.76,22.13l.81.26.71,6.06-2.85,4.81-.53,4.46,1.6,3.21-.71,3.56-1.96.89.36,4.81,6.42.36-.18,4.81-2.67,1.78-5.52-1.25s-1.07,4.63.18,8.55c1.25,3.92,3.92-.18,3.92-.18l8.02.71-.18,7.31-8.02,2.32s-1.07,4.46-.71,6.59,4.99-1.25,4.99-1.25l1.96,5.17,2.67,3.56v8.91l-2.49-.36-.36-2.67-3.39-2.32s-3.21,3.39-1.78,4.28c1.43.89,1.43,6.24,1.43,6.24l-2.14,1.96.36,7.49-2.14,1.25s-1.6,3.56-.36,6.06c1.25,2.5,3.21,5.35.89,6.42-2.32,1.07-1.78,4.99-1.07,5.88.71.89,4.28,3.03,3.74,3.39s-5.88,1.96-5.88,1.96l.18,3.21s-1.78,1.6-.53,5.17c1.25,3.56,1.78,5.7,1.78,5.7,0,0-3.21,1.96-3.21,3.03s5.17,3.74,5.17,3.74l.71,3.74-1.07,2.32.18,4.99-3.56,1.78-1.43,4.1,2.79,3.5.83,4.28.59,5.7,4.87,1.07,1.31-2.38,5.7,2.02,7.13,7.01,2.61,3.21,2.61,5.7.48,5.11v5.58l-4.75.24-.12,2.5-2.97,3.09-1.31,4.51v7.49l1.9,2.38v2.73l3.33,2.61,5.11,4.63v4.63l2.26,2.26.59,7.84-2.02,4.04v15.8l4.75,2.26,7.01,5.82.83,4.75,3.92,2.26,7.43,12.12.71,6.42s-1.07.83-2.38,2.61-2.5,7.13-2.73,8.79c-.24,1.66,1.54,14.85,4.16,17.82,2.61,2.97,4.99,9.03,4.75,12.24-.24,3.21-4.75,9.15-4.75,9.15,0,0,2.14,1.66,2.14,3.09s.71,5.11.95,7.01c.24,1.9,0,6.89,0,6.89l4.51,5.47s1.54,11.41,1.54,16.16,8.2,8.32,8.2,8.32l3.68,4.16,12.12,2.5,2.61,6.06,4.4,1.31s0,5.23,2.97,5.35c2.97.12,11.05,7.01,11.05,7.01,0,0,.12,4.4,0,7.01-.12,2.61,4.99,7.6,4.99,7.6,0,0,3.45,5.47,2.61,10.57-.83,5.11,7.49,10.81,7.49,10.81,0,0-.59,4.75-.36,7.01.24,2.26,8.79,1.66,8.79,1.66l8.32,8.67,9.74,3.56,14.02.24s3.8,2.97,6.18,2.97,10.22-3.56,10.22-3.56l26.85.24,8.55-2.85,21.51-.24s20.91,4.04,29.7,4.63c8.79.59,9.15-2.61,9.15-2.61,0,0,.71-15.68.59-19.13-.12-3.45,4.63-8.67,4.63-8.67l-9.27-2.38c-5.47-4.87-1.43-10.1-3.8-10.56-2.38-.46-8.55-3.35-8.55-3.35,0,0-6.77,1.54-12.95,3.09s-16.75-4.4-16.75-4.4c0,0-1.54-8.08-1.19-9.98s3.8-6.65,4.28-11.76c.48-5.11-7.6-5.47-4.63-11.05,2.85-5.35,6.79-15.73,7.11-16.57l-2.15-5.76-3.33-13.31Z"/>
      <path class="cls-1" d="M462.66,551.34l-8.08,7.6h-5.7l-9.98-9.98.95-7.13,22.81-22.81-26.61-.95-2.38,5.7-8.19-4.75h-6.55l-8.08-5.7-.48-9.98,4.28-12.83s0-23.76.95-28.99c.95-5.23,3.33-10.72,3.33-10.72,0,0-3.8-3.54-4.28-4.97-.48-1.43,0-12.83,0-12.83h-12.83l-6.18,5.7v5.15l-7.18,4.36-11.35,2.51-15.21-4.89v2.38s-13.31,1.43-14.73,2.51-11.53-9.16-11.53-9.16h-16.51c-3.33,0-5.23-4.65-5.23-4.65h-17.97l-15.77,13.81-.03-.02.03,24.12s8.08,19.96,6.65,22.34-10.93,29.94-10.93,29.94l2.38,9.5,8.72,14.26-2.07,7.6,7.6,17.11s-2.38,18.06-2.38,20.91,12.19,18.53,12.19,18.53l27.73,9.03v3.33l-7.13,9.5-8.55,8.55-8.08,2.38-.95,28.51,2.85,13.78,2.85,9.5v6.18l3.33,13.31,2.15,5.76s.02-.06.02-.06c7.49,1.9,3.8,8.32,8.91,11.52,5.11,3.21,14.85-1.54,18.18-2.5l1.66,4.16,4.28,2.73,1.03,4.75s12.27,10.22,17.14,12.59c4.87,2.38,5.47-2.26,5.11-4.28-.36-2.02,9.62-12.24,9.62-12.24,0,0,13.54-.12,16.51-.36,2.97-.24,2.14-4.87,5.58-4.87s9.98-2.5,12.24-3.09c2.26-.59,11.88,8.2,14.14,8.79,2.26.59.36-4.28,2.73-3.92s3.45-2.14,6.3-3.21c2.85-1.07,5.58-9.39-2.02-10.46-7.6-1.07-5.35-3.56-5.35-3.56,0,0,19.96-39.21,20.67-42.42.71-3.21-8.32.36-10.81-1.66-2.49-2.02,6.42-17.58,7.6-19.72s21.5.95,24.36.48c2.85-.48,1.43-18.3,1.43-20.32s4.99-4.87,4.99-4.87c0,0,1.07-7.37.71-9.74s1.78-2.5,7.72-5.23c5.94-2.73,3.45-6.06,3.09-6.42s-2.02-4.51-2.14-5.23c-.12-.71-.24,1.54,4.04-5.82,4.28-7.37-1.78-8.79-6.06-8.08-4.28.71-4.16,4.63-8.32,3.68s-2.85-4.63-2.02-6.77,1.54-1.43,1.31-3.56c-.24-2.14-1.66-4.51.12-4.87,1.78-.36,1.31-3.21,1.43-5.58.12-2.38,2.14-3.45,5.11-4.87,1.22-.58,2.09-2.1,3.32-3.5l-2.77-7.43-23.76-7.6Z"/>
      <path class="cls-4" d="M217.98,309.76l.09.75,10.99,8.93.2,4.67-12.78,18.6,4.75,18.53-4.75,6.65,2.38,3.8,1.9,23.14,14.73,21.72,3.33,8.37v4.22l10,3.86,31.32,17.7v-.4s0,.4,0,.4l.03.02,15.77-13.81,4.01-3.51,2.08-1.82,8.08-19.07v-6.59l8.55-6.65,9.98-10.46h9.89l7.04-9.5,15.39-3.8,16.16-6.65,11.08-12.83v-7.01l-10.83-12.55-.15-.02.15.02-3.04-3.52-15.17-18.37-38.32-35.39h0s-4.45-4.06-4.45-4.06l-7.6-8.55-5.8-17.79-5.32-5.5-1.72-34.69-4.92,1.4c.02,2.85-2.48,10.69-2.48,10.69l-12.83,19.25h-3.92s-1.25-8.68-4.59-9.62c-3.35-.94-12.24-2.86-12.24-2.86l-9.77-6.18-9.75,15.42,1.78,10.37-5.7,4.99-11.9,4.78.54,19.46-4.33,14.62,2.15,18.85"/>
    </g>
    <path class="cls-7" d="M184.71,118.57s5.44-4.01,5.97-6.95c.53-2.94,4.63-1.16,5.7-3.12,1.07-1.96,2.85-11.14,3.92-13.46,1.07-2.32,1.51-9.89,9.71-10.96s9.71.09,13.81-4.54,24.15-37.87,29.23-39.92,7.75-3.03,12.39-2.76,11.5-7.93,12.39-10.07,6.95-6.98,8.64-7.25,5.61-3.56,5.61-3.56c0,0,1.6-6.5-1.07-7.04s-6.77-1.78-.09-5.79,7.04-1.34,8.2-.45,7.04,4.1,6.86,6.68c-.18,2.58,1.43,3.03,2.94,3.03s.8,2.67-2.58,4.54-1.07,5.35-1.07,5.35c0,0,.98,1.49,3.09,1.43s1.63,2.67-2.94,3.56-3.12,4.28-1.81,4.57,4.78,1.13,4.6,3.33-4.01,5.67-1.99,6.71,3.12,1.9,3.12,3.45-.48,4.9,2.61,3.98,5.88-2.17,5.94-3.12-1.4-6.89,1.1-7.69,2.17-.98,4.49,1.31c2.32,2.29.59-1.25,3.71-1.69s3.21.98,4.46-.62c1.25-1.6,5.17-4.72,6.33-3.3,1.16,1.43,4.28,4.54,3.48,5.44s-2.32.45-2.05,1.96,3.48,4.37-.36,5.35-1.69-3.21-3.21-4.46-3.92-3.83-8.02,2.67c-4.1,6.5-.18,6.77-.45,9.98-.27,3.21-1.16,4.81.98,5.97,2.14,1.16,5.79-3.56,6.77-4.63s4.8-4.01,6.46,1.07,3.97-4.63,7.09-4.37,7.04,1.69,5.97,8.2c-1.07,6.5-2.76,9.89-5.97,10.69-3.21.8-7.57-1.07-5.61,8.55,1.96,9.62-11.76,8.55-11.94.71s-13.54,1.07-10.16,8.82c3.39,7.75,13.46,1.96,9,9.71-4.46,7.75-4.72,11.32-.8,13.19s2.67-4.72,3.83,3.56c1.16,8.29,38.32,93.92,55.43,108.18,0,0-.48,7.37.95,9.86,1.43,2.5,5.58.59,9.27,11.05s10.57,2.5,11.64,9.15c1.07,6.65-7.84,5.58-11.05,9.39s-1.31,12.48,7.84,19.13c9.15,6.65,12.71-.59,16.4,0s7.72.12,10.46,9.15c2.73,9.03,8.08,8.55-4.87,8.32-12.95-.24-14.38,7.96-14.38,7.96,0,0-3.33,5.23,2.73,6.18s4.51,6.42,1.9,11.41,3.45,19.49,8.79,21.5c5.35,2.02,5.58-3.8,8.32,2.73,2.73,6.53,2.61,1.54,5.23,5.11s-3.21,6.42,2.38,7.96-2.97,6.53,1.31,11.88c4.28,5.35,3.09-5.82,7.13-1.54,4.04,4.28,8.79,2.25,10.93,3.03s1.43,3.86,4.75,0c3.33-3.86,3.56-8.61,7.25-3.38,3.68,5.23,14.38,36.24,13.54,37.66-.83,1.43-8.67-2.31-8.32,5.2.36,7.51-1.07,10.48,2.61,12.62,3.68,2.14-.71,4.28,3.45,5.35s8.02-3.62,14.08,8.14c6.06,11.76,6.06,24.95,8.2,28.34,2.14,3.39,2.14,4.28,4.81,6.77,2.67,2.5,3.21,8.2,2.5,9.27-.71,1.07-8.55-.18-7.31,3.03,1.25,3.21,1.6,6.42,3.39,8.91s1.44,17.72,1.44,17.72c0,0-1.41,8.87.01,10.65s3.56,4.28-1.19,6.18-1.19,2.85-.59,5.47-1.07,3.8-1.78,4.87c-.71,1.07-4.28-1.43-3.8,2.61.48,4.04,1.43,20.67-7.6,17.82-9.03-2.85-9.98,4.16-12.95,5.58s-4.99,2.5-5.11,4.87.36,5.23-1.43,5.58-.36,2.73-.12,4.87-.48,1.43-1.31,3.56c-.83,2.14-2.14,5.82,2.02,6.77s4.04-2.97,8.32-3.68c4.28-.71,10.34.71,6.06,8.08-4.28,7.37-4.16,5.11-4.04,5.82s1.78,4.87,2.14,5.23,2.85,3.68-3.09,6.42c-5.94,2.73-8.08,2.85-7.72,5.23.36,2.38-.71,9.74-.71,9.74,0,0-4.99,2.85-4.99,4.87s1.43,19.84-1.43,20.32-23.17-2.61-24.36-.48-10.1,17.7-7.6,19.72,11.52-1.54,10.81,1.66-20.67,42.42-20.67,42.42c0,0-2.26,2.5,5.35,3.56s4.87,9.39,2.02,10.46c-2.85,1.07-3.92,3.56-6.3,3.21s-.48,4.51-2.73,3.92c-2.26-.59-11.88-9.39-14.14-8.79s-8.79,3.09-12.24,3.09-2.61,4.63-5.58,4.87c-2.97.24-16.51.36-16.51.36,0,0-9.98,10.22-9.62,12.24.36,2.02-.24,6.65-5.11,4.28-4.87-2.38-17.14-12.59-17.14-12.59l-1.03-4.75-4.28-2.73-1.66-4.16c-3.33.95-13.07,5.7-18.18,2.5s-1.43-9.62-8.91-11.52c0,0-4.16,11.05-7.13,16.63s5.11,5.94,4.63,11.05c-.48,5.11-3.92,9.86-4.28,11.76-.36,1.9,1.19,9.98,1.19,9.98,0,0,10.57,5.94,16.75,4.4s12.95-3.09,12.95-3.09c0,0,6.18,2.89,8.55,3.35s-1.66,5.68,3.8,10.56l9.27,2.38s-4.75,5.23-4.63,8.67-.59,19.13-.59,19.13c0,0-.36,3.21-9.15,2.61s-29.7-4.63-29.7-4.63l-21.5.24-8.55,2.85-26.85-.24s-7.84,3.56-10.22,3.56-6.18-2.97-6.18-2.97l-14.02-.24-9.74-3.56-8.32-8.67s-8.55.59-8.79-1.66c-.24-2.26.36-7.01.36-7.01,0,0-8.32-5.7-7.49-10.81.83-5.11-2.61-10.57-2.61-10.57,0,0-5.11-4.99-4.99-7.6s0-7.01,0-7.01c0,0-8.08-6.89-11.05-7.01s-2.97-5.35-2.97-5.35l-4.4-1.31-2.61-6.06-12.12-2.5-3.68-4.16s-8.2-3.56-8.2-8.32-1.54-16.16-1.54-16.16l-4.51-5.47s.24-4.99,0-6.89c-.24-1.9-.95-5.58-.95-7.01s-2.14-3.09-2.14-3.09c0,0,4.51-5.94,4.75-9.15s-2.14-9.27-4.75-12.24-4.4-16.16-4.16-17.82,1.43-7.01,2.73-8.79,2.38-2.61,2.38-2.61l-.71-6.42-7.43-12.12-3.92-2.26-.83-4.75-7.01-5.82-4.75-2.26v-15.8l2.02-4.04-.59-7.84-2.26-2.26v-4.63l-5.11-4.63-3.33-2.61v-2.73l-1.9-2.38v-7.49l1.31-4.51,2.97-3.09.12-2.5,4.75-.24v-5.58l-.48-5.11-2.61-5.7-2.61-3.21-7.13-7.01-5.7-2.02-1.31,2.38-4.87-1.07-.59-5.7-.83-4.28-2.79-3.5,1.43-4.1,3.56-1.78-.18-4.99,1.07-2.32-.71-3.74s-5.17-2.67-5.17-3.74,3.21-3.03,3.21-3.03c0,0-.53-2.14-1.78-5.7s.53-5.17.53-5.17l-.18-3.21s5.35-1.6,5.88-1.96-3.03-2.5-3.74-3.39-1.25-4.81,1.07-5.88.36-3.92-.89-6.42.36-6.06.36-6.06l2.14-1.25-.36-7.49,2.14-1.96s0-5.35-1.43-6.24,1.78-4.28,1.78-4.28l3.39,2.32.36,2.67,2.5.36v-8.91l-2.67-3.56-1.96-5.17s-4.63,3.39-4.99,1.25.71-6.59.71-6.59l8.02-2.32.18-7.31-8.02-.71s-2.67,4.1-3.92.18-.18-8.55-.18-8.55l5.52,1.25,2.67-1.78.18-4.81-6.42-.36-.36-4.81,1.96-.89.71-3.56-1.6-3.21.53-4.46,2.85-4.81-.71-6.06-4.99-1.6h-5.7l-2.67-2.32,2.32-3.39,4.63-.89-.18-6.77,5.88-1.07-1.25-9.27-4.28-1.96-4.1,4.63-6.06.18-7.13-8.02-1.96-5.35-3.03-3.03-4.28.18-5.17-3.56-3.92,5.35v3.92l-1.43,2.5-5.88,1.78-16.04,9.98v-9.27l-3.39-7.66-18.36.71s7.13-13.19,6.06-17.64,10.16-24.77,21.56-27.27,7.31-1.78,7.31-1.78l.18-9.45,2.32-3.21.36-2.32,4.28.89,1.43,3.74,1.6,2.32,3.92-.18.53-11.41,3.39.18-.53-14.44-2.14-1.6.18-5.17,1.25-.71-4.28-7.13-2.67-17.82s-3.56-4.81-3.03-6.77,2.14-7.49,2.14-7.49l-.89-21.92,4.28-1.43.89-4.99,4.63.89,3.39,4.99s3.74,6.95,5.17,6.95l-.18,12.12,7.31-.89,2.85-3.92,8.2.18,6.77-4.99s3.56.89,3.74,1.43,5.7,1.25,5.7,1.25l2.5,3.74,14.44-.53,3.74-2.32,5.35,4.1,5.88-.18.36,4.81,4.28,4.46,3.39-2.67,3.74-61.31s5.7-12.83,14.79-11.58,14.61,4.28,14.61,4.28c0,0,7.6,2.79,14.94.06Z"/>
  </g>
</svg>