<svg width="24" height="24" viewBox="0 0 24 24" fill="none" xmlns="http://www.w3.org/2000/svg">
<path d="M18.1445 11.3125C20.2022 11.3125 21.87 12.9805 21.8701 15.0381C21.8701 16.3673 21.1736 17.533 20.126 18.1924L17.834 21.249L15.7188 17.8643C14.9235 17.181 14.4189 16.1688 14.4189 15.0381C14.419 12.9805 16.087 11.3126 18.1445 11.3125ZM16.1807 2C17.9505 2.00025 19.3848 3.43514 19.3848 5.20508V7.58984H19.9883C20.3421 7.58989 20.6287 7.87665 20.6289 8.23047V10.0537C20.6289 10.3673 20.4039 10.6272 20.1064 10.6826C19.5035 10.4225 18.839 10.2774 18.1406 10.2773C17.9316 10.2774 17.7256 10.2913 17.5234 10.3164V6.98828C17.5232 6.63449 17.2366 6.34774 16.8828 6.34766H5.74512C5.39147 6.34795 5.1047 6.63462 5.10449 6.98828V11.2949C5.10449 11.6488 5.39135 11.9362 5.74512 11.9365H14.4365C13.6512 12.8151 13.1729 13.974 13.1729 15.2451C13.1729 16.6216 13.7341 17.8661 14.6387 18.7656H7.58789V19.3857C7.58789 20.0715 7.03245 20.6278 6.34668 20.6279C5.66093 20.6278 5.10449 20.0715 5.10449 19.3857V18.7627C4.41458 18.742 3.86133 18.1783 3.86133 17.4834V10.6943H2.64062C2.28696 10.694 2.00005 10.4075 2 10.0537V8.23047C2.00021 7.87686 2.28705 7.59022 2.64062 7.58984H3.86133V5.20508C3.86133 3.43509 5.29646 2.00017 7.06641 2H16.1807ZM18.1475 13.1758C17.1186 13.1758 16.2842 14.0102 16.2842 15.0391C16.2844 16.0677 17.1188 16.9014 18.1475 16.9014C19.176 16.9011 20.0095 16.0676 20.0098 15.0391C20.0098 14.0104 19.1761 13.176 18.1475 13.1758ZM6.34668 13.7969C5.66086 13.797 5.10449 14.3532 5.10449 15.0391C5.10464 15.7248 5.66095 16.2802 6.34668 16.2803C7.03236 16.2801 7.58774 15.7247 7.58789 15.0391C7.58789 14.3533 7.03245 13.797 6.34668 13.7969ZM9.45117 3.86328C9.1083 3.86337 8.83008 4.14148 8.83008 4.48438C8.83015 4.8272 9.10835 5.10538 9.45117 5.10547H13.1768C13.5197 5.10547 13.7978 4.82726 13.7979 4.48438C13.7979 4.14143 13.5197 3.86328 13.1768 3.86328H9.45117Z" fill="#06A85B"/>
</svg>
