<svg width="24" height="24" viewBox="0 0 24 24" fill="none" xmlns="http://www.w3.org/2000/svg">
<path d="M11.2412 1.16517C11.5607 0.929145 12.0074 0.946078 12.3086 1.21596C14.4015 3.09204 16.9933 4.29994 19.7588 4.68959C20.1763 4.7484 20.4871 5.10594 20.4873 5.52748V12.4679C20.4872 15.009 19.3238 17.1693 17.7237 18.8995C16.1272 20.6258 14.0566 21.971 12.1143 22.9152C11.8819 23.0281 11.6098 23.0291 11.377 22.9171C9.41436 21.9725 7.33852 20.6271 5.74417 18.8995C4.14586 17.1676 2.99306 15.0057 3.00003 12.465V5.52748C3.00024 5.10594 3.31109 4.7484 3.72855 4.68959C6.49403 4.29993 9.08584 3.09205 11.1787 1.21596L11.2412 1.16517ZM11.7432 2.95814C9.69806 4.62635 7.27576 5.75566 4.69241 6.24428V12.4699C4.68701 14.4613 5.58442 16.2299 6.98831 17.7511C8.30177 19.1743 10.0256 20.3417 11.7412 21.2091C13.4421 20.3413 15.1647 19.1739 16.4815 17.7501C17.8895 16.2275 18.7948 14.4585 18.795 12.4679V6.24428C16.2114 5.75564 13.7884 4.62653 11.7432 2.95814ZM9.20413 10.0236C10.5581 8.44423 14.3754 8.23815 15.9737 8.33217C16.0676 9.5547 15.8606 12.5067 14.2813 14.5372C12.7018 16.5678 10.4266 16.1352 9.48636 15.6652L8.63968 16.5109C8.18873 16.7362 7.88815 16.4177 7.79398 16.2296L12.8711 10.8703L8.35843 14.5372C8.1704 13.6911 7.85029 11.6031 9.20413 10.0236Z" fill="#EC8913"/>
</svg>
