<svg width="40" height="40" viewBox="0 0 40 40" fill="none" xmlns="http://www.w3.org/2000/svg">
<path d="M19.5527 16.1109V21.6275M19.5527 27.1442H19.5658M17.7385 9.06574L6.96216 28.6589C6.36444 29.7457 6.06558 30.2891 6.10975 30.7351C6.14828 31.124 6.34189 31.4775 6.6424 31.7075C6.98691 31.9712 7.58341 31.9712 8.77637 31.9712H30.3288C31.5219 31.9712 32.1183 31.9712 32.4629 31.7075C32.7633 31.4775 32.957 31.124 32.9955 30.7351C33.0396 30.2891 32.7408 29.7457 32.1431 28.6589L21.3668 9.06574C20.7713 7.98286 20.4735 7.44143 20.085 7.25959C19.7461 7.10097 19.3592 7.10097 19.0204 7.25959C18.6318 7.44143 18.3339 7.98287 17.7385 9.06574Z" stroke="#EC8913" stroke-width="2" stroke-linecap="round" stroke-linejoin="round"/>
</svg>
