<svg width="34" height="44" viewBox="0 0 34 44" fill="none" xmlns="http://www.w3.org/2000/svg">
<circle cx="17" cy="17" r="16.5" fill="white" stroke="#D3EBFD"/>
<path d="M10 22.5V8H19V12H24.5V20.5" stroke="#EC8913" stroke-width="2"/>
<path d="M24.2777 23.9453C25.3321 23.9453 26.3322 24.3698 27.2641 25.1152C27.5994 25.3836 27.6535 25.8736 27.3852 26.209C27.1168 26.5439 26.6276 26.5981 26.2924 26.3301C25.5578 25.7425 24.8899 25.5 24.2777 25.5C23.6657 25.5002 22.9985 25.7426 22.2641 26.3301C21.3322 27.0755 20.3321 27.5 19.2777 27.5C18.2236 27.4999 17.2241 27.0754 16.2924 26.3301C15.5578 25.7425 14.8899 25.5 14.2777 25.5C13.6657 25.5001 12.9985 25.7426 12.2641 26.3301C11.3322 27.0755 10.3321 27.5 9.27774 27.5C8.22347 27.4999 7.22326 27.0756 6.29141 26.3301C5.95649 26.0617 5.90229 25.5716 6.17032 25.2363C6.43864 24.9012 6.92873 24.8472 7.26407 25.1152C7.99852 25.7027 8.66567 25.9452 9.27774 25.9453C9.88993 25.9453 10.5578 25.7029 11.2924 25.1152C12.2241 24.3699 13.2236 23.9454 14.2777 23.9453C15.3321 23.9453 16.3322 24.3698 17.2641 25.1152C17.9985 25.7027 18.6657 25.9452 19.2777 25.9453C19.8899 25.9453 20.5578 25.7029 21.2924 25.1152C22.2241 24.3699 23.2236 23.9455 24.2777 23.9453ZM24.2777 19.9453C25.3321 19.9453 26.3322 20.3698 27.2641 21.1152C27.5994 21.3836 27.6535 21.8736 27.3852 22.209C27.1168 22.5438 26.6276 22.5981 26.2924 22.3301C25.5578 21.7424 24.8899 21.5 24.2777 21.5C23.6657 21.5002 22.9985 21.7426 22.2641 22.3301C21.3322 23.0755 20.3321 23.5 19.2777 23.5C18.2236 23.4999 17.2241 23.0754 16.2924 22.3301C15.5578 21.7424 14.8899 21.5 14.2777 21.5C13.6657 21.5001 12.9985 21.7426 12.2641 22.3301C11.3322 23.0755 10.3321 23.5 9.27774 23.5C8.22347 23.4999 7.22326 23.0756 6.29141 22.3301C5.95647 22.0617 5.90234 21.5716 6.17032 21.2363C6.43865 20.9012 6.92873 20.8471 7.26407 21.1152C7.99852 21.7027 8.66567 21.9452 9.27774 21.9453C9.88991 21.9453 10.5578 21.7028 11.2924 21.1152C12.2241 20.3699 13.2236 19.9454 14.2777 19.9453C15.3321 19.9453 16.3322 20.3698 17.2641 21.1152C17.9985 21.7027 18.6657 21.9452 19.2777 21.9453C19.8899 21.9453 20.5578 21.7028 21.2924 21.1152C22.2241 20.3699 23.2236 19.9455 24.2777 19.9453Z" fill="#EC8913"/>
<rect x="13.5" y="11.5" width="1" height="2" fill="#EC8913" stroke="#EC8913"/>
<rect x="13.5" y="16.5" width="1" height="2" fill="#EC8913" stroke="#EC8913"/>
<rect x="19.5" y="16.5" width="1" height="2" fill="#EC8913" stroke="#EC8913"/>
<path d="M20 39.5C20 40.8807 18.8807 42 17.5 42C16.1193 42 15 40.8807 15 39.5C15 38.1193 16.1193 37 17.5 37C18.8807 37 20 38.1193 20 39.5Z" fill="#EC8913"/>
<path d="M20 39.5C20 38.1193 18.8807 37 17.5 37C16.1193 37 15 38.1193 15 39.5C15 40.8807 16.1193 42 17.5 42C18.8807 42 20 40.8807 20 39.5ZM22 39.5C22 41.9853 19.9853 44 17.5 44C15.0147 44 13 41.9853 13 39.5C13 37.0147 15.0147 35 17.5 35C19.9853 35 22 37.0147 22 39.5Z" fill="white"/>
</svg>
