<svg width="24" height="24" viewBox="0 0 24 24" fill="none" xmlns="http://www.w3.org/2000/svg">
<path d="M11.374 16.5557C11.7875 16.5419 12.1345 16.8659 12.1484 17.2793L12.1982 18.7822C12.1995 18.7828 12.2009 18.7837 12.2021 18.7842C12.2266 18.7942 12.2506 18.8053 12.2744 18.8164C12.2976 18.8273 12.3212 18.8377 12.3438 18.8496C12.3677 18.8623 12.3908 18.8768 12.4141 18.8906C12.4328 18.9017 12.4515 18.913 12.4697 18.9248C12.4899 18.9379 12.5097 18.9518 12.5293 18.9658C12.5535 18.9831 12.5774 19.001 12.6006 19.0195C12.6155 19.0315 12.6301 19.0442 12.6445 19.0566C12.6668 19.0759 12.6887 19.0958 12.71 19.1162C12.7268 19.1324 12.7436 19.1491 12.7598 19.166C12.7783 19.1855 12.7969 19.2052 12.8145 19.2256C12.8284 19.2418 12.8421 19.2586 12.8555 19.2754C12.8734 19.2979 12.8905 19.3213 12.9072 19.3447C12.9214 19.3646 12.9359 19.3847 12.9492 19.4053C12.9601 19.4221 12.9702 19.4398 12.9805 19.457C12.9963 19.4836 13.0121 19.5106 13.0264 19.5381C13.0353 19.5553 13.0435 19.5733 13.0518 19.5908C13.0646 19.6181 13.0775 19.6458 13.0889 19.6738C13.0982 19.6968 13.106 19.7207 13.1143 19.7441C13.1223 19.767 13.1307 19.7902 13.1377 19.8135C13.1466 19.8432 13.1539 19.8739 13.1611 19.9043C13.1659 19.924 13.1718 19.9439 13.1758 19.9639C13.1822 19.9962 13.186 20.0295 13.1904 20.0625C13.2 20.1337 13.208 20.2064 13.208 20.2803L13.1992 20.4463C13.1884 20.5519 13.1659 20.6544 13.1357 20.7529C13.1297 20.7727 13.122 20.7921 13.1152 20.8115C13.1067 20.8362 13.0996 20.8617 13.0898 20.8857C13.0803 20.9092 13.0691 20.9322 13.0586 20.9551C13.0458 20.9829 13.0329 21.0111 13.0186 21.0381C13.0101 21.054 13.0002 21.0694 12.9912 21.085C12.9756 21.112 12.9595 21.139 12.9424 21.165C12.9309 21.1826 12.9184 21.1998 12.9062 21.2168C12.8903 21.2391 12.8744 21.2618 12.8574 21.2832C12.8412 21.3036 12.8238 21.3232 12.8066 21.3428C12.7898 21.362 12.7726 21.381 12.7549 21.3994C12.7412 21.4136 12.7271 21.4277 12.7129 21.4414C12.6887 21.4647 12.6633 21.487 12.6377 21.5088C12.6247 21.5198 12.6119 21.5314 12.5986 21.542C12.5736 21.562 12.5477 21.5811 12.5215 21.5996C12.5064 21.6102 12.491 21.6207 12.4756 21.6309C12.4537 21.6452 12.4317 21.6596 12.4092 21.6729C12.3864 21.6863 12.3633 21.6996 12.3398 21.7119C12.3191 21.7227 12.2976 21.7322 12.2764 21.7422C12.2512 21.754 12.226 21.7659 12.2002 21.7764C12.1794 21.7848 12.158 21.7922 12.1367 21.7998C12.1083 21.81 12.0799 21.8205 12.0508 21.8291C12.029 21.8355 12.0066 21.8402 11.9844 21.8457C11.9588 21.8521 11.9333 21.8591 11.9072 21.8643C11.8869 21.8683 11.8663 21.8708 11.8457 21.874C11.8162 21.8787 11.7868 21.8856 11.7568 21.8887L11.5918 21.8965C11.5358 21.8965 11.4803 21.8942 11.4258 21.8887C11.3745 21.8834 11.3242 21.8742 11.2744 21.8643C11.2556 21.8605 11.2373 21.855 11.2188 21.8506C11.1902 21.8438 11.1617 21.8373 11.1338 21.8291C11.1128 21.8229 11.0919 21.8166 11.0713 21.8096C11.0406 21.7991 11.0103 21.7876 10.9805 21.7754C10.9674 21.77 10.9543 21.7645 10.9414 21.7588C10.9072 21.7437 10.8737 21.7273 10.8408 21.71C10.8294 21.7039 10.8179 21.6977 10.8066 21.6914C10.771 21.6715 10.7361 21.6504 10.7021 21.6279C10.6955 21.6235 10.6882 21.6197 10.6816 21.6152C10.6517 21.5948 10.6232 21.5722 10.5947 21.5498C10.5813 21.5392 10.5668 21.5295 10.5537 21.5186C10.4481 21.43 10.3535 21.3283 10.2734 21.2158L10.252 21.1836C10.2488 21.179 10.2462 21.1736 10.2432 21.1689C10.2208 21.1351 10.1995 21.1001 10.1797 21.0645C10.1734 21.0532 10.1671 21.0417 10.1611 21.0303C10.1439 20.9974 10.1273 20.9638 10.1123 20.9297C10.106 20.9153 10.0997 20.9004 10.0938 20.8857C10.0823 20.8576 10.0714 20.8288 10.0615 20.7998C10.0546 20.7793 10.0481 20.7582 10.042 20.7373C10.0144 20.6436 9.99361 20.5462 9.9834 20.4463C9.97789 20.3922 9.97562 20.3368 9.97559 20.2812C9.97559 20.2256 9.97888 20.1695 9.98438 20.1152C9.99542 20.0068 10.0164 19.9009 10.0479 19.7998C10.158 19.4456 10.3875 19.1437 10.6885 18.9404C10.6933 18.9372 10.6983 18.9339 10.7031 18.9307L10.6504 17.3291C10.6369 16.916 10.9609 16.5698 11.374 16.5557ZM14.2402 15.3262C14.5342 15.0353 15.0087 15.0374 15.2998 15.3311L17.5664 17.6211C17.5849 17.6166 17.6033 17.6113 17.6221 17.6074C17.7274 17.5859 17.8366 17.5742 17.9482 17.5742L18.1133 17.582C18.2194 17.5928 18.3228 17.6142 18.4219 17.6445C18.4354 17.6487 18.4486 17.6537 18.4619 17.6582C18.4976 17.6702 18.5329 17.6829 18.5674 17.6973C18.5833 17.7039 18.5986 17.7117 18.6143 17.7188C18.6436 17.7321 18.6728 17.7457 18.7012 17.7607C18.7191 17.7702 18.7364 17.7809 18.7539 17.791C18.7816 17.807 18.8093 17.8232 18.8359 17.8408C18.8502 17.8502 18.864 17.8603 18.8779 17.8701C18.9049 17.8892 18.9313 17.909 18.957 17.9297C18.972 17.9417 18.9865 17.9543 19.001 17.9668C19.0242 17.9868 19.0473 18.007 19.0693 18.0283C19.0836 18.0421 19.0976 18.0561 19.1113 18.0703C19.1315 18.0912 19.1509 18.1128 19.1699 18.1348C19.1856 18.153 19.2009 18.1715 19.2158 18.1904C19.2315 18.2103 19.247 18.2304 19.2617 18.251C19.2768 18.2721 19.2915 18.2936 19.3057 18.3154C19.3166 18.3323 19.3266 18.3498 19.3369 18.3672C19.3528 18.3939 19.3685 18.4206 19.3828 18.4482C19.3924 18.4668 19.4012 18.4859 19.4102 18.5049C19.4218 18.5296 19.433 18.5546 19.4434 18.5801C19.4554 18.6096 19.4662 18.6396 19.4766 18.6699C19.4822 18.6865 19.4881 18.703 19.4932 18.7197C19.5023 18.7499 19.5101 18.7806 19.5176 18.8115C19.5226 18.8326 19.528 18.8536 19.5322 18.875C19.5388 18.9085 19.5433 18.9424 19.5479 18.9766C19.5571 19.0466 19.5645 19.1179 19.5645 19.1904C19.5644 19.2461 19.5612 19.3012 19.5557 19.3555C19.545 19.4604 19.5229 19.5621 19.4932 19.6602C19.4856 19.685 19.4765 19.7091 19.4678 19.7334C19.4597 19.756 19.4524 19.7787 19.4434 19.8008C19.4334 19.8253 19.4223 19.8492 19.4111 19.873C19.4003 19.8963 19.3899 19.9197 19.3779 19.9424C19.3655 19.966 19.3515 19.9888 19.3379 20.0117C19.3265 20.0309 19.3148 20.0497 19.3027 20.0684C19.2901 20.0878 19.2771 20.1071 19.2637 20.126C19.2458 20.151 19.2272 20.1753 19.208 20.1992C19.1989 20.2106 19.1901 20.2223 19.1807 20.2334C19.1578 20.2603 19.1339 20.2862 19.1094 20.3115C19.0963 20.3251 19.0829 20.3384 19.0693 20.3516C19.0451 20.375 19.0198 20.3971 18.9941 20.4189C18.9811 20.43 18.9684 20.4415 18.9551 20.4521C18.9316 20.4709 18.9073 20.4884 18.8828 20.5059C18.8628 20.5201 18.8429 20.5345 18.8223 20.5479C18.8053 20.5588 18.7879 20.5688 18.7705 20.5791C18.7438 20.5949 18.7171 20.6107 18.6895 20.625C18.6709 20.6346 18.6518 20.6434 18.6328 20.6523C18.608 20.664 18.583 20.6752 18.5576 20.6855C18.5281 20.6976 18.4981 20.7084 18.4678 20.7188C18.4512 20.7244 18.4347 20.7303 18.418 20.7354C18.3846 20.7455 18.3506 20.7537 18.3164 20.7617C18.2989 20.7658 18.2814 20.7709 18.2637 20.7744C18.2283 20.7814 18.1924 20.7864 18.1562 20.791C18.1403 20.7931 18.1245 20.7963 18.1084 20.7979C18.0903 20.7996 18.072 20.7996 18.0537 20.8008C18.0188 20.803 17.9837 20.8066 17.9482 20.8066C17.8923 20.8066 17.8367 20.8034 17.7822 20.7979C17.7307 20.7926 17.6799 20.7844 17.6299 20.7744C17.6161 20.7717 17.6025 20.7678 17.5889 20.7646C17.5523 20.7563 17.5161 20.7471 17.4805 20.7363C17.4644 20.7315 17.4485 20.726 17.4326 20.7207C17.4043 20.7112 17.3762 20.7014 17.3486 20.6904C17.3252 20.681 17.3022 20.6706 17.2793 20.6602C17.2575 20.6502 17.2361 20.6397 17.2148 20.6289C17.1928 20.6176 17.1709 20.606 17.1494 20.5938C17.1269 20.5809 17.1048 20.5676 17.083 20.5537C17.0646 20.542 17.0463 20.53 17.0283 20.5176C17.0067 20.5026 16.9857 20.4867 16.9648 20.4707C16.9465 20.4566 16.9279 20.4426 16.9102 20.4277C16.7964 20.3323 16.6962 20.2216 16.6123 20.0986C16.6079 20.0922 16.6039 20.0856 16.5996 20.0791C16.5776 20.0457 16.5567 20.0116 16.5371 19.9766C16.5287 19.9615 16.5207 19.9461 16.5127 19.9307C16.4981 19.9025 16.4846 19.8738 16.4717 19.8447C16.465 19.8297 16.4574 19.8151 16.4512 19.7998C16.4391 19.7703 16.4283 19.7403 16.418 19.71C16.411 19.6893 16.4046 19.6684 16.3984 19.6475C16.3707 19.5534 16.35 19.4558 16.3398 19.3555L16.332 19.1904C16.332 19.1347 16.3353 19.0797 16.3408 19.0254C16.3463 18.9712 16.3545 18.9178 16.3652 18.8652C16.3831 18.7781 16.4082 18.6937 16.4395 18.6123L14.2354 16.3848C13.9445 16.0908 13.9467 15.6173 14.2402 15.3262ZM14.5078 13.2256L14.4883 13.207C14.2857 14.8098 12.9185 16.0497 11.2607 16.0498C10.5517 16.0498 9.8969 15.8205 9.3623 15.4355L6.36621 18.6279C6.37173 18.6442 6.37781 18.6603 6.38281 18.6768C6.39199 18.7069 6.3998 18.7377 6.40723 18.7686C6.41229 18.7896 6.41765 18.8107 6.42188 18.832C6.42849 18.8655 6.43298 18.8995 6.4375 18.9336C6.44676 19.0036 6.4541 19.075 6.4541 19.1475C6.45409 19.2031 6.45082 19.2583 6.44531 19.3125C6.43464 19.4174 6.41258 19.5192 6.38281 19.6172C6.37528 19.642 6.3661 19.6662 6.35742 19.6904C6.34937 19.713 6.34203 19.7357 6.33301 19.7578C6.32301 19.7823 6.31193 19.8062 6.30078 19.8301C6.28992 19.8533 6.2795 19.8768 6.26758 19.8994C6.25512 19.923 6.24112 19.9458 6.22754 19.9688C6.2162 19.9879 6.20448 20.0068 6.19238 20.0254C6.17973 20.0449 6.16677 20.0641 6.15332 20.083C6.1355 20.108 6.11684 20.1323 6.09766 20.1562C6.08854 20.1676 6.07973 20.1793 6.07031 20.1904C6.0475 20.2173 6.02352 20.2432 5.99902 20.2686C5.98591 20.2821 5.97256 20.2955 5.95898 20.3086C5.93476 20.332 5.90943 20.3541 5.88379 20.376C5.87079 20.3871 5.85808 20.3985 5.84473 20.4092C5.82128 20.4279 5.79695 20.4455 5.77246 20.4629C5.75246 20.4771 5.73258 20.4915 5.71191 20.5049C5.69499 20.5158 5.67751 20.5258 5.66016 20.5361C5.63348 20.552 5.60674 20.5677 5.5791 20.582C5.5605 20.5917 5.54147 20.6005 5.52246 20.6094C5.49769 20.621 5.47271 20.6322 5.44727 20.6426C5.41776 20.6546 5.38777 20.6655 5.35742 20.6758C5.34088 20.6814 5.3244 20.6873 5.30762 20.6924C5.27425 20.7025 5.24029 20.7108 5.20605 20.7188C5.18848 20.7229 5.17111 20.7279 5.15332 20.7314C5.11794 20.7384 5.08207 20.7434 5.0459 20.748C5.02996 20.7501 5.01413 20.7533 4.99805 20.7549C4.97994 20.7567 4.96164 20.7566 4.94336 20.7578C4.90845 20.7601 4.87337 20.7637 4.83789 20.7637C4.7819 20.7637 4.7264 20.7604 4.67188 20.7549C4.62031 20.7496 4.56955 20.7414 4.51953 20.7314C4.50572 20.7287 4.49219 20.7248 4.47852 20.7217C4.4419 20.7134 4.40574 20.7041 4.37012 20.6934C4.35402 20.6885 4.33814 20.6831 4.32227 20.6777C4.29397 20.6682 4.26585 20.6585 4.23828 20.6475C4.21481 20.6381 4.19186 20.6276 4.16895 20.6172C4.14717 20.6073 4.12573 20.5968 4.10449 20.5859C4.0824 20.5747 4.06055 20.563 4.03906 20.5508C4.01657 20.538 3.99445 20.5246 3.97266 20.5107C3.9542 20.499 3.9359 20.4871 3.91797 20.4746C3.89634 20.4596 3.87534 20.4438 3.85449 20.4277C3.83611 20.4136 3.81755 20.3997 3.7998 20.3848C3.68609 20.2893 3.5858 20.1787 3.50195 20.0557C3.4976 20.0493 3.49352 20.0426 3.48926 20.0361C3.46722 20.0028 3.44632 19.9686 3.42676 19.9336C3.41832 19.9185 3.4103 19.9031 3.40234 19.8877C3.38779 19.8596 3.37424 19.8308 3.36133 19.8018C3.35467 19.7868 3.34704 19.7721 3.34082 19.7568C3.3288 19.7274 3.31791 19.6973 3.30762 19.667C3.30062 19.6464 3.29426 19.6255 3.28809 19.6045C3.26037 19.5104 3.2397 19.4128 3.22949 19.3125L3.22168 19.1475C3.22168 19.0918 3.22496 19.0367 3.23047 18.9824C3.23596 18.9282 3.24417 18.8748 3.25488 18.8223C3.27641 18.717 3.30773 18.6153 3.34863 18.5186C3.38952 18.4218 3.43996 18.3301 3.49805 18.2441C3.61424 18.0722 3.76261 17.9238 3.93457 17.8076C4.02059 17.7495 4.11227 17.6991 4.20898 17.6582C4.26955 17.6326 4.33242 17.6119 4.39648 17.5938C4.53686 17.554 4.68477 17.5312 4.83789 17.5312L5.00293 17.5391C5.09869 17.5488 5.19216 17.5671 5.28223 17.5928L8.3623 14.3105C8.36608 14.3065 8.37018 14.3027 8.37402 14.2988C8.13914 13.849 8.00586 13.3375 8.00586 12.7949C8.00587 11.1797 9.1833 9.83968 10.7266 9.58496L14.6934 8.73047L14.5078 13.2256ZM10.0977 2C12.3065 2 14.2904 3.09362 15.2021 4.77832L15.2207 4.79004C16.3993 4.82288 17.3758 5.11325 18.1094 5.70117C18.7975 6.25284 19.1966 7.00621 19.3809 7.8623C21.0508 8.65281 22.2714 10.1884 22.2715 12.0449C22.2714 13.1507 21.838 14.3181 21.0918 15.1709C20.3333 16.0376 19.2002 16.6266 17.8516 16.3945C17.4439 16.3243 17.1693 15.9369 17.2393 15.5293C17.3095 15.1215 17.6977 14.8478 18.1055 14.918C18.8296 15.0426 19.4688 14.7502 19.9639 14.1846C20.4712 13.6049 20.7734 12.7876 20.7734 12.0449C20.7733 10.843 19.9365 9.71089 18.5557 9.13281C18.5151 9.11583 18.4755 9.09512 18.4385 9.07129L18.3008 8.98242C18.1175 8.8641 17.9938 8.67119 17.9639 8.45508C17.8615 7.71399 17.5898 7.20515 17.1719 6.87012C16.744 6.52726 16.063 6.28521 14.9912 6.28516C14.8448 6.28508 14.7013 6.24263 14.5791 6.16211L14.2139 5.9209C14.1009 5.84623 14.0098 5.74216 13.9512 5.62012C13.3809 4.43131 11.9152 3.49902 10.0977 3.49902C7.69472 3.49922 6.00117 5.08944 5.97656 6.79492C5.96583 7.53987 6.00976 7.8797 6.03809 8.01172C6.13296 8.16185 6.17568 8.34485 6.14551 8.53125C6.08663 8.89378 5.77349 9.1599 5.40625 9.16016C3.80078 9.16016 2.49923 10.462 2.49902 12.0674C2.49917 13.6728 3.80129 14.9746 5.40625 14.9746C5.81977 14.9749 6.15418 15.3101 6.1543 15.7236C6.15415 16.1372 5.81975 16.4724 5.40625 16.4727C2.9738 16.4727 1.00015 14.5006 1 12.0674C1.00018 9.94546 2.50048 8.17418 4.49805 7.75586C4.47991 7.4986 4.47269 7.17716 4.47852 6.77344C4.51789 4.02266 7.12146 2.00021 10.0977 2ZM12.8066 10.6406C12.5396 10.7966 11.6072 11.5286 11.6025 11.5322L9.73535 13.4502C9.58282 13.6153 9.5533 13.8667 9.67773 14.0537C9.93612 14.4408 10.4658 14.0732 10.4658 14.0732C10.4793 14.0576 11.5783 12.7896 12.002 12.249L12.1377 12.0674C12.3603 11.7334 13.0741 10.4845 12.8066 10.6406ZM5.86328 7.81934C5.8404 7.80134 5.81433 7.78239 5.78613 7.76562C5.78239 7.76344 5.77823 7.76192 5.77441 7.75977C5.8056 7.77739 5.83535 7.79778 5.86328 7.81934ZM5.75293 7.74805C5.74157 7.74207 5.72979 7.73599 5.71777 7.73047C5.70579 7.72497 5.69317 7.71979 5.68066 7.71484C5.67455 7.71243 5.66833 7.71028 5.66211 7.70801C5.65891 7.70684 5.65557 7.70425 5.65234 7.70312C5.65084 7.7026 5.64838 7.70246 5.64746 7.70215C5.6843 7.71471 5.71932 7.73048 5.75293 7.74805Z" fill="#636CCC"/>
</svg>
