<svg width="24" height="24" viewBox="0 0 24 24" fill="none" xmlns="http://www.w3.org/2000/svg">
<path d="M15.1111 18.0013V16.5569C15.1111 15.7907 14.8067 15.0559 14.265 14.5141C13.7232 13.9723 12.9884 13.668 12.2222 13.668H7.88889C7.12271 13.668 6.38791 13.9723 5.84614 14.5141C5.30436 15.0559 5 15.7907 5 16.5569V18.0013" stroke="#044E9E" stroke-width="1.6" stroke-linecap="round" stroke-linejoin="round"/>
<path d="M15.1113 5.09375C15.7308 5.25435 16.2794 5.61611 16.6711 6.12224C17.0627 6.62837 17.2752 7.25023 17.2752 7.89019C17.2752 8.53016 17.0627 9.15202 16.6711 9.65815C16.2794 10.1643 15.7308 10.526 15.1113 10.6866" stroke="#044E9E" stroke-width="1.6" stroke-linecap="round" stroke-linejoin="round"/>
<path d="M19.444 17.9973V16.5528C19.4435 15.9127 19.2305 15.2909 18.8383 14.785C18.4462 14.2792 17.8971 13.9178 17.2773 13.7578" stroke="#044E9E" stroke-width="1.6" stroke-linecap="round" stroke-linejoin="round"/>
<path d="M10.0549 10.7778C11.6504 10.7778 12.9438 9.48438 12.9438 7.88889C12.9438 6.2934 11.6504 5 10.0549 5C8.45942 5 7.16602 6.2934 7.16602 7.88889C7.16602 9.48438 8.45942 10.7778 10.0549 10.7778Z" stroke="#044E9E" stroke-width="1.6" stroke-linecap="round" stroke-linejoin="round"/>
</svg>
