<svg width="24" height="24" viewBox="0 0 24 24" fill="none" xmlns="http://www.w3.org/2000/svg">
<path d="M9.71875 3C11.4927 3.00005 13.2001 3.53019 14.6562 4.53223C16.0777 5.51054 17.1687 6.87064 17.8105 8.46582C17.927 8.75576 17.7859 9.08549 17.4961 9.20215C17.2064 9.31831 16.8774 9.17799 16.7607 8.88867C15.5982 5.99899 12.8339 4.13095 9.71875 4.13086C5.53505 4.13086 2.13086 7.53518 2.13086 11.7188C2.13104 15.9022 5.53517 19.3057 9.71875 19.3057C11.2092 19.3057 12.6005 18.8734 13.7744 18.1279C13.7689 18.123 13.7632 18.118 13.7578 18.1133C14.8006 17.5699 16.2161 15.9924 16.6621 15.5889C17.1674 15.1314 18.3181 13.2158 18.3311 13.1943C18.3121 13.2073 16.344 14.5517 15.6699 15.1055C14.9928 15.6618 14.0496 16.9672 13.6865 17.1855C13.5648 17.2586 13.4266 17.2552 13.2969 17.2188L13.1709 17.1729C13.0692 16.6094 12.0475 9.7162 23 9.85547C22.9936 9.88898 21.9783 15.2316 20.1455 17.0645C18.3349 18.8752 16.4301 18.9963 14.8477 18.7686C14.3101 19.1603 13.7302 19.4897 13.1123 19.751C12.0373 20.2057 10.8953 20.4365 9.71875 20.4365C8.54205 20.4365 7.39939 20.2057 6.32422 19.751C5.28614 19.3119 4.35413 18.6832 3.55371 17.8828C2.7533 17.0824 2.12469 16.1503 1.68555 15.1123C1.23078 14.0372 1 12.8944 1 11.7178C1.00006 10.5413 1.23068 9.39937 1.68555 8.32422C2.12467 7.28615 2.7533 6.35413 3.55371 5.55371C4.35423 4.75321 5.28696 4.12468 6.3252 3.68555C7.40029 3.23087 8.54215 3 9.71875 3ZM10.6455 6.59863C12.3179 6.59871 13.6941 7.86506 13.8682 9.49121C14.4486 9.60778 14.9632 9.9066 15.3496 10.3252L15.5078 10.5117C14.6457 11.0224 13.9535 11.6893 13.3066 12.501C12.7557 13.1921 12.4791 14.0814 12.3535 14.9531H7.37109V14.9521C5.60307 14.9261 4.17773 13.5012 4.17773 11.7109C4.17775 9.92057 5.6295 8.46973 7.41992 8.46973C7.51464 8.46973 7.6084 8.47349 7.70117 8.48145C8.21519 7.36992 9.34031 6.59863 10.6455 6.59863Z" fill="#D65C66"/>
</svg>
