<svg width="24" height="24" viewBox="0 0 24 24" fill="none" xmlns="http://www.w3.org/2000/svg">
<path d="M12.4861 15.8367C13.7054 14.7438 16.8008 11.6909 16.8008 8.80028C16.8008 7.52717 16.295 6.3062 15.3948 5.40597C14.4946 4.50574 13.2736 4 12.0005 4C10.7274 4 9.50639 4.50574 8.60617 5.40597C7.70594 6.3062 7.2002 7.52717 7.2002 8.80028C7.2002 11.6909 10.2964 14.7438 11.5149 15.8367C11.6543 15.9432 11.825 16.0009 12.0005 16.0009C12.176 16.0009 12.3466 15.9432 12.4861 15.8367Z" stroke="#044E9E" stroke-width="1.60009" stroke-linecap="round" stroke-linejoin="round"/>
<path d="M12.0005 10.3994C12.8842 10.3994 13.6006 9.68302 13.6006 8.79931C13.6006 7.91561 12.8842 7.19922 12.0005 7.19922C11.1168 7.19922 10.4004 7.91561 10.4004 8.79931C10.4004 9.68302 11.1168 10.3994 12.0005 10.3994Z" stroke="#044E9E" stroke-width="1.60009" stroke-linecap="round" stroke-linejoin="round"/>
<path d="M9.37118 13.5977H6.403C6.23526 13.5977 6.07177 13.6505 5.93567 13.7486C5.79957 13.8466 5.69773 13.985 5.64456 14.1441L4.04126 18.9444C4.00107 19.0646 3.99003 19.1927 4.00906 19.3181C4.0281 19.4434 4.07665 19.5625 4.15073 19.6654C4.2248 19.7683 4.32227 19.8521 4.43511 19.91C4.54794 19.9678 4.67291 19.998 4.79971 19.998H19.2006C19.3273 19.9979 19.4521 19.9678 19.5649 19.91C19.6776 19.8522 19.775 19.7684 19.8491 19.6656C19.9232 19.5628 19.9717 19.4439 19.9909 19.3186C20.01 19.1934 19.999 19.0654 19.959 18.9452L18.3589 14.1449C18.3058 13.9855 18.2039 13.8469 18.0677 13.7487C17.9314 13.6505 17.7676 13.5976 17.5997 13.5977H14.6299" stroke="#044E9E" stroke-width="1.60009" stroke-linecap="round" stroke-linejoin="round"/>
</svg>
