<svg width="92" height="92" viewBox="0 0 92 92" fill="none" xmlns="http://www.w3.org/2000/svg">
<g filter="url(#filter0_d_346_22226)">
<circle cx="46" cy="46" r="36" fill="#2098F3"></circle>
<circle cx="46" cy="46" r="35.5" stroke="white"></circle>
</g>
<path d="M29.3222 43.3836C29.3901 44.6961 30.4989 45.3976 31.8793 45.4203C33.305 45.3976 34.3912 44.583 34.3912 43.0894C34.3912 41.6638 33.4181 40.6907 31.472 40.6907H29.7522V38.3825L33.0787 34.5808V34.3998H26.833V31.6164H37.1972V34.0151L33.2144 38.4504V38.6767C36.3147 39.0841 37.7177 41.1659 37.7177 43.3157C37.7177 46.2123 35.2284 48.2263 31.8793 48.2263C28.5528 48.2263 26.1767 46.2802 26.0862 43.3836H29.3222ZM46.0905 48.2263C42.9224 48.2263 40.6142 46.2123 40.5463 43.3836H43.6692C43.7371 44.7188 44.8233 45.5334 46.0905 45.5334C47.5841 45.5334 48.7155 44.4019 48.7155 42.6369C48.7155 40.8491 47.5614 39.695 46.0226 39.6724C44.9591 39.6724 44.2123 40.0345 43.6918 41.0528H40.7726L41.5873 31.6164H50.9784V34.3998H44.4838L44.0991 38.5409H44.2123C44.6649 37.7942 45.57 37.1606 46.9957 37.1606C49.8244 37.1606 51.7931 39.4235 51.7931 42.5463C51.7931 45.8955 49.417 48.2263 46.0905 48.2263ZM60.0754 48.2263C56.3416 48.2263 54.1239 45.3071 54.1239 40.4192V39.1972C54.1239 34.3093 56.3416 31.3901 60.0754 31.3901C63.8093 31.3901 66.0269 34.3093 66.0269 39.1972V40.4192C66.0269 45.3071 63.8093 48.2263 60.0754 48.2263ZM60.0754 45.4203C61.8858 45.4203 62.8362 43.7004 62.8362 40.4192V39.1972C62.8362 35.9159 61.8858 34.1961 60.0754 34.1961C58.2651 34.1961 57.3147 35.9159 57.3147 39.1972V40.4192C57.3147 43.7004 58.2651 45.4203 60.0754 45.4203ZM33.4068 56.8082H34.6288L37.3895 63.5517H37.4914L40.2522 56.8082H41.4741V65H40.5124V58.8109H40.4332L37.8874 65H36.9822L34.4364 58.8109H34.3685V65H33.4068V56.8082ZM44.9364 65L42.5603 56.8082H43.59L45.423 63.4386H45.5022L47.1088 57.8265H48.2629L49.8696 63.4386H49.9375L51.7705 56.8082H52.8001L50.424 65H49.4283L47.7198 59.4219H47.6519L45.9434 65H44.9364ZM54.7349 61.3114V65H53.7619V56.8082H54.7349V59.8179H54.8141C55.097 59.1843 55.6514 58.7769 56.6245 58.7769C57.8804 58.7769 58.7177 59.5237 58.7177 61.0964V65H57.7446V61.1643C57.7446 60.2026 57.2128 59.6482 56.3303 59.6482C55.4138 59.6482 54.7349 60.2478 54.7349 61.3114Z" fill="white"></path>
<defs>
<filter id="filter0_d_346_22226" x="0" y="0" width="92" height="92" filterUnits="userSpaceOnUse" color-interpolation-filters="sRGB">
<feFlood flood-opacity="0" result="BackgroundImageFix"></feFlood>
<feColorMatrix in="SourceAlpha" type="matrix" values="0 0 0 0 0 0 0 0 0 0 0 0 0 0 0 0 0 0 127 0" result="hardAlpha"></feColorMatrix>
<feOffset></feOffset>
<feGaussianBlur stdDeviation="5"></feGaussianBlur>
<feComposite in2="hardAlpha" operator="out"></feComposite>
<feColorMatrix type="matrix" values="0 0 0 0 0.0470588 0 0 0 0 0.541176 0 0 0 0 0.898039 0 0 0 1 0"></feColorMatrix>
<feBlend mode="normal" in2="BackgroundImageFix" result="effect1_dropShadow_346_22226"></feBlend>
<feBlend mode="normal" in="SourceGraphic" in2="effect1_dropShadow_346_22226" result="shape"></feBlend>
</filter>
</defs>
</svg>