<svg width="60" height="60" viewBox="0 0 60 60" fill="none" xmlns="http://www.w3.org/2000/svg">
<g filter="url(#filter0_d_536_5222)">
<rect x="10" y="8" width="40" height="40" rx="20" fill="#636CCC"></rect>
<rect x="11" y="9" width="38" height="38" rx="19" stroke="white" stroke-width="2"></rect>
</g>
<path d="M21.6133 34.7891C22.6644 34.7893 23.5166 35.6422 23.5166 36.6934C23.5164 37.7443 22.6643 38.5965 21.6133 38.5967C20.5621 38.5967 19.7092 37.7445 19.709 36.6934C19.709 35.6421 20.562 34.7891 21.6133 34.7891Z" fill="white" stroke="white" stroke-width="0.0751182"></path>
<path d="M29.7305 36.1553C30.7816 36.1555 31.6338 37.0084 31.6338 38.0596C31.6336 39.1106 30.7815 39.9627 29.7305 39.9629C28.6793 39.9629 27.8264 39.1107 27.8262 38.0596C27.8262 37.0083 28.6792 36.1553 29.7305 36.1553Z" fill="white" stroke="white" stroke-width="0.0751182"></path>
<path d="M37.3633 34.8428C38.4144 34.843 39.2666 35.6959 39.2666 36.7471C39.2664 37.7981 38.4143 38.6502 37.3633 38.6504C36.3121 38.6504 35.4592 37.7982 35.459 36.7471C35.459 35.6958 36.312 34.8428 37.3633 34.8428Z" fill="white" stroke="white" stroke-width="0.0751182"></path>
<path d="M26.979 31.1641L21.9453 36.3585" stroke="white" stroke-width="1.8" stroke-miterlimit="10" stroke-linecap="round"></path>
<path d="M29.6067 37.6972L29.5 34.4844" stroke="white" stroke-width="1.8" stroke-miterlimit="10" stroke-linecap="round"></path>
<path d="M33.5391 32.7432L36.2696 35.5015" stroke="white" stroke-width="1.8" stroke-miterlimit="10" stroke-linecap="round"></path>
<path d="M22.2977 32.5833C19.8728 32.5833 17.9062 30.6174 17.9062 28.1919C17.9062 25.7663 19.8721 23.8004 22.2977 23.8004C22.2977 23.8004 22.0565 23.7201 22.0836 21.8459C22.1219 19.1694 24.7029 17 27.9338 17C30.4022 17 32.5137 18.2665 33.3731 20.0581L33.811 20.3473C36.6385 20.3473 37.9823 21.619 38.2738 23.7298L38.439 23.8365C40.347 24.635 41.6556 26.2733 41.6556 28.1648C41.6556 30.3853 39.8888 32.9311 37.3987 32.5021" stroke="white" stroke-width="1.8" stroke-linecap="round" stroke-linejoin="round"></path>
<path d="M33.1963 29.498L33.1797 29.4824L33.1709 29.5566C32.9299 31.4634 31.3032 32.9385 29.3311 32.9385C27.1929 32.9385 25.459 31.2046 25.459 29.0664C25.459 27.1449 26.8603 25.5509 28.6963 25.248L28.6982 25.2471L33.4141 24.2314L33.1963 29.498ZM31.2373 26.4248C31.2142 26.4233 31.1904 26.4338 31.1689 26.4463C31.0057 26.5416 30.6418 26.811 30.3213 27.0547C30.1606 27.1769 30.0099 27.2931 29.8994 27.3789C29.8442 27.4218 29.799 27.4579 29.7676 27.4824C29.752 27.4946 29.7397 27.5043 29.7314 27.5107C29.7274 27.5139 29.7238 27.5159 29.7217 27.5176L29.7188 27.5205L29.7148 27.5234L27.4727 29.8271L27.4717 29.8281C27.2778 30.038 27.2386 30.3584 27.3984 30.5986C27.4814 30.7231 27.5877 30.7882 27.7002 30.8145C27.8115 30.8404 27.927 30.8278 28.0293 30.8008C28.1317 30.7737 28.2241 30.7322 28.29 30.6973C28.323 30.6798 28.3496 30.6639 28.3682 30.6523C28.3775 30.6466 28.3846 30.641 28.3896 30.6377C28.3921 30.6361 28.3942 30.6347 28.3955 30.6338L28.3975 30.6328L28.3984 30.6338L28.4053 30.626L28.4062 30.625C28.407 30.6241 28.4078 30.6227 28.4092 30.6211C28.4125 30.6173 28.4174 30.6109 28.4238 30.6035C28.4366 30.5887 28.4564 30.5669 28.4805 30.5391C28.5285 30.4834 28.5973 30.4036 28.6807 30.3066C28.848 30.1121 29.0743 29.8484 29.3086 29.5723C29.7636 29.0361 30.2516 28.4481 30.4023 28.2295H30.4053L30.416 28.2129C30.5506 28.0109 30.833 27.5345 31.041 27.1318C31.1448 26.931 31.2311 26.7457 31.2715 26.6221C31.2815 26.5912 31.2889 26.5632 31.293 26.5391C31.2969 26.5159 31.2987 26.4918 31.293 26.4717C31.2899 26.461 31.2837 26.4497 31.2734 26.4404C31.2628 26.4309 31.2502 26.4257 31.2373 26.4248Z" fill="white" stroke="white" stroke-width="0.0751182"></path>
<defs>
<filter id="filter0_d_536_5222" x="0" y="0" width="60" height="60" filterUnits="userSpaceOnUse" color-interpolation-filters="sRGB">
<feFlood flood-opacity="0" result="BackgroundImageFix"></feFlood>
<feColorMatrix in="SourceAlpha" type="matrix" values="0 0 0 0 0 0 0 0 0 0 0 0 0 0 0 0 0 0 127 0" result="hardAlpha"></feColorMatrix>
<feOffset dy="2"></feOffset>
<feGaussianBlur stdDeviation="5"></feGaussianBlur>
<feComposite in2="hardAlpha" operator="out"></feComposite>
<feColorMatrix type="matrix" values="0 0 0 0 0 0 0 0 0 0 0 0 0 0 0 0 0 0 0.25 0"></feColorMatrix>
<feBlend mode="normal" in2="BackgroundImageFix" result="effect1_dropShadow_536_5222"></feBlend>
<feBlend mode="normal" in="SourceGraphic" in2="effect1_dropShadow_536_5222" result="shape"></feBlend>
</filter>
</defs>
</svg>