<svg width="50" height="60" viewBox="0 0 50 60" fill="none" xmlns="http://www.w3.org/2000/svg">
<path d="M24.6182 0C35.9147 0 45.073 9.15758 45.0732 20.4541C45.0732 28.5977 40.3134 35.6288 33.4248 38.9199C33.4238 38.9201 33.4229 38.9207 33.4219 38.9209C32.9642 39.1395 32.4972 39.3416 32.0215 39.5264C31.3749 39.9051 30.6463 40.4459 30.0781 41.1113L25.1113 49.7158C24.8926 50.0946 24.3456 50.0946 24.127 49.7158L19.1631 41.1211C18.5922 40.4496 17.858 39.904 17.207 39.5234C16.735 39.3398 16.2717 39.1388 15.8174 38.9219C15.8145 38.9214 15.8114 38.9213 15.8086 38.9209L15.8105 38.9189C8.92291 35.6275 4.16406 28.597 4.16406 20.4541C4.16428 9.15771 13.3218 0.000216478 24.6182 0Z" fill="#0C8AE5"></path>
<circle cx="24.5454" cy="20.3794" r="17.0454" fill="white"></circle>
<path d="M19.2592 21.5329L25.7787 14.3271C25.9304 14.1594 26.2079 14.2866 26.1798 14.5109L25.4997 19.952H29.6208C29.8189 19.952 29.9254 20.1847 29.7959 20.3346L23.3002 27.8559C23.1506 28.0291 22.8672 27.9031 22.8956 27.676L23.5719 22.2653L19.4115 21.9186C19.2206 21.9027 19.1306 21.6749 19.2592 21.5329Z" fill="#274A89"></path>
<path d="M31.8392 10.3125C32.482 10.3125 34.2308 10.8526 36.0814 13.0117C37.6428 14.8337 36.9321 16.5987 36.1322 17.5693C35.8985 17.0236 35.4221 16.1053 34.6635 15.0938C34.5358 14.9235 34.2937 14.8891 34.1234 15.0166C33.9534 15.1443 33.9189 15.3854 34.0463 15.5557C34.8873 16.677 35.3484 17.6595 35.5004 18.0654C30.4638 19.1095 30.9509 13.3583 31.8392 10.3125Z" fill="#0C8AE5"></path>
<path d="M12 20.7227C12.0001 13.6961 17.6961 8.00014 24.7227 8C26.6266 8 28.4352 8.41843 30.0589 9.16952C30.4454 9.34833 30.6136 9.80671 30.4349 10.1932C30.256 10.5796 29.7977 10.7479 29.4112 10.5692C27.9863 9.91008 26.3984 9.54168 24.7227 9.54168C18.5478 9.54182 13.5418 14.5478 13.5417 20.7227C13.5417 26.8977 18.5477 31.9035 24.7227 31.9037C30.8978 31.9037 35.9037 26.8978 35.9037 20.7227C35.9038 20.2969 36.2497 19.9518 36.6754 19.9518C37.101 19.9521 37.4462 20.2971 37.4463 20.7227C37.4463 27.7495 31.7495 33.4463 24.7227 33.4463C17.696 33.4462 12 27.7494 12 20.7227Z" fill="#0C8AE5"></path>
<g filter="url(#filter0_f_536_5407)">
<ellipse cx="25.5" cy="50" rx="11.5" ry="2" fill="#2A7DD0"></ellipse>
</g>
<defs>
<filter id="filter0_f_536_5407" x="6" y="40" width="39" height="20" filterUnits="userSpaceOnUse" color-interpolation-filters="sRGB">
<feFlood flood-opacity="0" result="BackgroundImageFix"></feFlood>
<feBlend mode="normal" in="SourceGraphic" in2="BackgroundImageFix" result="shape"></feBlend>
<feGaussianBlur stdDeviation="4" result="effect1_foregroundBlur_536_5407"></feGaussianBlur>
</filter>
</defs>
</svg>