<svg width="50" height="60" viewBox="0 0 50 60" fill="none" xmlns="http://www.w3.org/2000/svg">
<path d="M24.6182 0C35.9147 0 45.073 9.15758 45.0732 20.4541C45.0732 28.5977 40.3134 35.6288 33.4248 38.9199C33.4238 38.9201 33.4229 38.9207 33.4219 38.9209C32.9642 39.1395 32.4972 39.3416 32.0215 39.5264C31.3749 39.9051 30.6463 40.4459 30.0781 41.1113L25.1113 49.7158C24.8926 50.0946 24.3456 50.0946 24.127 49.7158L19.1631 41.1211C18.5922 40.4496 17.858 39.904 17.207 39.5234C16.735 39.3398 16.2717 39.1388 15.8174 38.9219C15.8145 38.9214 15.8114 38.9213 15.8086 38.9209L15.8105 38.9189C8.92291 35.6275 4.16406 28.597 4.16406 20.4541C4.16428 9.15771 13.3218 0.000216478 24.6182 0Z" fill="#636CCC"></path>
<circle cx="24.5454" cy="20.3794" r="17.0454" fill="white"></circle>
<path d="M24.4639 25.585C24.9603 25.5687 25.3769 25.9577 25.3936 26.4541L25.4531 28.2598C25.4574 28.2615 25.4615 28.2638 25.4658 28.2656C25.4814 28.2721 25.4963 28.2802 25.5117 28.2871C25.5531 28.3056 25.594 28.3245 25.6338 28.3457C25.6536 28.3563 25.673 28.3677 25.6924 28.3789C25.7214 28.3957 25.7503 28.4124 25.7783 28.4307C25.8038 28.4472 25.8279 28.4657 25.8525 28.4834C25.8802 28.5033 25.9081 28.5227 25.9346 28.5439C25.9519 28.5578 25.9685 28.5725 25.9854 28.5869C26.0144 28.6119 26.0428 28.6375 26.0703 28.6641C26.0874 28.6806 26.1037 28.6977 26.1201 28.7148C26.1447 28.7405 26.1682 28.767 26.1914 28.7939C26.2092 28.8146 26.2272 28.835 26.2441 28.8564C26.262 28.8791 26.279 28.9024 26.2959 28.9258C26.3153 28.9527 26.3345 28.9799 26.3525 29.0078C26.3682 29.0321 26.3828 29.057 26.3975 29.082C26.4129 29.1084 26.4282 29.1349 26.4424 29.1621C26.4559 29.188 26.4681 29.2146 26.4805 29.2412C26.494 29.2702 26.5074 29.2993 26.5195 29.3291C26.5298 29.3545 26.5386 29.3804 26.5479 29.4062C26.5595 29.4389 26.5721 29.4714 26.582 29.5049C26.5881 29.5251 26.5923 29.5459 26.5977 29.5664C26.6389 29.724 26.6631 29.8891 26.6631 30.0596C26.6631 30.2242 26.6402 30.3835 26.6016 30.5361C26.5943 30.5649 26.5877 30.5938 26.5791 30.6221C26.5714 30.6475 26.5624 30.6723 26.5537 30.6973C26.5414 30.7325 26.5289 30.7675 26.5146 30.8018C26.5071 30.82 26.4983 30.8375 26.4902 30.8555C26.473 30.8936 26.4551 30.931 26.4355 30.9678C26.4261 30.9856 26.4162 31.003 26.4062 31.0205C26.3862 31.0556 26.3659 31.0904 26.3438 31.124C26.3305 31.1441 26.3157 31.163 26.3018 31.1826C26.2804 31.2126 26.2594 31.2428 26.2363 31.2715C26.2224 31.2888 26.2078 31.3054 26.1934 31.3223C26.1684 31.3513 26.1428 31.3797 26.1162 31.4072C26.0997 31.4243 26.0825 31.4406 26.0654 31.457C26.0388 31.4826 26.0114 31.5072 25.9834 31.5312C25.9662 31.546 25.9494 31.561 25.9316 31.5752C25.9031 31.598 25.8736 31.6194 25.8438 31.6406C25.8228 31.6555 25.8019 31.6705 25.7803 31.6846C25.7493 31.7048 25.7177 31.7238 25.6855 31.7422C25.6658 31.7535 25.6461 31.7648 25.626 31.7754C25.5934 31.7926 25.56 31.8079 25.5264 31.8232C25.503 31.8339 25.4799 31.8448 25.4561 31.8545C25.4275 31.8662 25.3984 31.8764 25.3691 31.8867C25.3387 31.8975 25.3084 31.9087 25.2773 31.918C25.2548 31.9247 25.2318 31.9296 25.209 31.9355C25.1705 31.9455 25.1321 31.9563 25.0928 31.9639C25.0741 31.9675 25.055 31.9686 25.0361 31.9717C24.9954 31.9783 24.9547 31.9862 24.9131 31.9902C24.8504 31.9963 24.7869 32 24.7227 32L24.5234 31.9902C24.461 31.9839 24.3995 31.9741 24.3389 31.9619C24.3241 31.9589 24.3096 31.9545 24.2949 31.9512C24.2501 31.9411 24.2057 31.9301 24.1621 31.917C24.143 31.9112 24.1243 31.9047 24.1055 31.8984C24.0681 31.8859 24.0314 31.8721 23.9951 31.8574C23.9728 31.8484 23.9507 31.839 23.9287 31.8291C23.895 31.814 23.8618 31.7982 23.8291 31.7812C23.811 31.7718 23.7932 31.7619 23.7754 31.752C23.7428 31.7337 23.7111 31.7144 23.6797 31.6943C23.6568 31.6797 23.6335 31.6659 23.6113 31.6504C23.5858 31.6325 23.5617 31.6128 23.5371 31.5938C23.5176 31.5787 23.4974 31.5646 23.4785 31.5488C23.3886 31.4737 23.3055 31.3908 23.2305 31.3008C23.2158 31.2831 23.2026 31.2643 23.1885 31.2461C23.1665 31.2178 23.1444 31.1897 23.124 31.1602C23.1111 31.1414 23.0992 31.1218 23.0869 31.1025C23.0665 31.0706 23.0469 31.0381 23.0283 31.0049C23.0168 30.9843 23.0059 30.9634 22.9951 30.9424C22.9798 30.9125 22.965 30.8823 22.9512 30.8516C22.9409 30.8287 22.9313 30.8056 22.9219 30.7822C22.9087 30.7494 22.8962 30.7163 22.8848 30.6826C22.877 30.6596 22.8692 30.6366 22.8623 30.6133C22.85 30.5718 22.8387 30.5299 22.8291 30.4873C22.8254 30.4711 22.8216 30.4549 22.8184 30.4385C22.8066 30.3792 22.7972 30.3189 22.791 30.2578L22.7812 30.0596C22.7812 29.9927 22.7844 29.9265 22.791 29.8613C22.8042 29.7308 22.8304 29.604 22.8682 29.4824C22.9249 29.2999 23.0075 29.1287 23.1123 28.9736C23.2518 28.7671 23.4302 28.5887 23.6367 28.4492C23.6437 28.4445 23.6511 28.4402 23.6582 28.4355L23.5947 26.5146C23.5782 26.018 23.9673 25.6017 24.4639 25.585ZM27.9072 24.1035C28.2604 23.7541 28.83 23.7575 29.1797 24.1104L31.9023 26.8604C32.0477 26.8256 32.1994 26.8057 32.3555 26.8057L32.5537 26.8154C32.6152 26.8217 32.6757 26.8309 32.7354 26.8428C32.768 26.8493 32.8 26.8581 32.832 26.8662C32.8608 26.8735 32.8897 26.8801 32.918 26.8887C32.9434 26.8964 32.9682 26.9054 32.9932 26.9141C33.0287 26.9264 33.0641 26.9388 33.0986 26.9531C33.1143 26.9596 33.1291 26.9677 33.1445 26.9746C33.1859 26.9931 33.2268 27.012 33.2666 27.0332C33.2864 27.0438 33.3058 27.0552 33.3252 27.0664C33.3542 27.0832 33.3831 27.0999 33.4111 27.1182C33.4366 27.1347 33.4607 27.1532 33.4854 27.1709C33.513 27.1908 33.5409 27.2102 33.5674 27.2314C33.5847 27.2453 33.6013 27.26 33.6182 27.2744C33.6472 27.2994 33.6756 27.325 33.7031 27.3516C33.7202 27.3681 33.7365 27.3852 33.7529 27.4023C33.7775 27.428 33.801 27.4545 33.8242 27.4814C33.842 27.5021 33.86 27.5225 33.877 27.5439C33.8948 27.5666 33.9118 27.5899 33.9287 27.6133C33.9482 27.6402 33.9673 27.6674 33.9854 27.6953C34.001 27.7196 34.0157 27.7445 34.0303 27.7695C34.0457 27.7959 34.061 27.8224 34.0752 27.8496C34.0887 27.8755 34.1009 27.9021 34.1133 27.9287C34.1268 27.9577 34.1402 27.9868 34.1523 28.0166C34.1626 28.042 34.1714 28.0679 34.1807 28.0938C34.1924 28.1264 34.2049 28.1589 34.2148 28.1924C34.2182 28.2036 34.2205 28.2152 34.2236 28.2266C34.2697 28.3923 34.2959 28.5667 34.2959 28.7471C34.2959 28.8984 34.2769 29.0452 34.2441 29.1865C34.2345 29.228 34.2242 29.2691 34.2119 29.3096C34.2042 29.335 34.1952 29.3598 34.1865 29.3848C34.1742 29.42 34.1617 29.455 34.1475 29.4893C34.1399 29.5075 34.1311 29.525 34.123 29.543C34.1059 29.5811 34.0879 29.6185 34.0684 29.6553C34.0589 29.6731 34.0491 29.6905 34.0391 29.708C34.019 29.7431 33.9987 29.7779 33.9766 29.8115C33.9657 29.828 33.9547 29.8442 33.9434 29.8604C33.9197 29.8941 33.8949 29.9269 33.8691 29.959C33.8553 29.9763 33.8406 29.9929 33.8262 30.0098C33.8012 30.0388 33.7757 30.0672 33.749 30.0947C33.7325 30.1118 33.7154 30.1281 33.6982 30.1445C33.6716 30.1701 33.6443 30.1947 33.6162 30.2188C33.6011 30.2317 33.5868 30.2453 33.5713 30.2578C33.5407 30.2825 33.5087 30.3053 33.4766 30.3281C33.4556 30.343 33.4347 30.358 33.4131 30.3721C33.384 30.3911 33.3544 30.4093 33.3242 30.4268C33.3027 30.4392 33.2809 30.4512 33.2588 30.4629C33.2262 30.4801 33.1928 30.4954 33.1592 30.5107C33.1359 30.5214 33.1127 30.5323 33.0889 30.542C33.0603 30.5537 33.0312 30.5639 33.002 30.5742C32.9715 30.585 32.9413 30.5962 32.9102 30.6055C32.8876 30.6122 32.8647 30.6171 32.8418 30.623C32.8033 30.633 32.765 30.6438 32.7256 30.6514C32.7069 30.655 32.6878 30.6561 32.6689 30.6592C32.6282 30.6658 32.5875 30.6737 32.5459 30.6777C32.4832 30.6838 32.4197 30.6875 32.3555 30.6875L32.1562 30.6777C32.0938 30.6714 32.0323 30.6616 31.9717 30.6494C31.9536 30.6458 31.9359 30.6408 31.918 30.6367C31.8764 30.6272 31.8354 30.6167 31.7949 30.6045C31.7759 30.5987 31.7571 30.5922 31.7383 30.5859C31.7009 30.5734 31.6642 30.5596 31.6279 30.5449C31.6056 30.5359 31.5835 30.5265 31.5615 30.5166C31.5278 30.5015 31.4946 30.4857 31.4619 30.4688C31.4429 30.4589 31.4239 30.449 31.4053 30.4385C31.3736 30.4207 31.343 30.4013 31.3125 30.3818C31.2896 30.3672 31.2663 30.3534 31.2441 30.3379C31.2186 30.32 31.1945 30.3003 31.1699 30.2812C31.1504 30.2662 31.1302 30.2521 31.1113 30.2363C31.0214 30.1612 30.9383 30.0783 30.8633 29.9883C30.8486 29.9706 30.8354 29.9518 30.8213 29.9336C30.7994 29.9053 30.7772 29.8772 30.7568 29.8477C30.7439 29.8289 30.732 29.8093 30.7197 29.79C30.6993 29.7581 30.6797 29.7256 30.6611 29.6924C30.6496 29.6718 30.6387 29.6509 30.6279 29.6299C30.6126 29.6 30.5978 29.5698 30.584 29.5391C30.5737 29.5162 30.5641 29.4931 30.5547 29.4697C30.5415 29.4369 30.529 29.4038 30.5176 29.3701C30.5098 29.3471 30.5021 29.3241 30.4951 29.3008C30.4828 29.2593 30.4715 29.2174 30.4619 29.1748C30.4583 29.1586 30.4544 29.1424 30.4512 29.126C30.4394 29.0667 30.43 29.0064 30.4238 28.9453L30.4141 28.7471C30.4141 28.6802 30.4172 28.614 30.4238 28.5488C30.437 28.4183 30.4632 28.2915 30.501 28.1699C30.5139 28.1285 30.5294 28.0881 30.5449 28.0479L27.9004 25.376C27.5512 25.0227 27.5542 24.453 27.9072 24.1035ZM22.9277 8.09961C25.5808 8.09961 27.9635 9.41299 29.0586 11.4365L29.0811 11.4502C30.4967 11.4896 31.6697 11.8387 32.5508 12.5449C33.3773 13.2075 33.8558 14.1124 34.0771 15.1406C36.0833 16.0901 37.5498 17.9349 37.5498 20.165C37.5497 21.4933 37.0292 22.8956 36.1328 23.9199C35.2217 24.9611 33.8603 25.6677 32.2402 25.3887C31.7505 25.3043 31.4216 24.8394 31.5059 24.3496C31.5902 23.8598 32.0561 23.5309 32.5459 23.6152C33.4157 23.7649 34.1827 23.4137 34.7773 22.7344C35.3867 22.0381 35.7499 21.0571 35.75 20.165C35.75 18.7211 34.7448 17.3613 33.0859 16.667C33.037 16.6465 32.9899 16.6215 32.9453 16.5928L32.7803 16.4863C32.56 16.3441 32.4118 16.1123 32.376 15.8525C32.253 14.9624 31.9268 14.3516 31.4248 13.9492C30.9108 13.5372 30.0925 13.2471 28.8047 13.2471C28.6287 13.247 28.4565 13.1955 28.3096 13.0986L27.8711 12.8086C27.7353 12.7188 27.6261 12.5941 27.5557 12.4473C26.8707 11.0194 25.1109 9.90039 22.9277 9.90039C20.0413 9.90047 18.0071 11.8098 17.9775 13.8584C17.9646 14.7535 18.0168 15.1617 18.0508 15.3203C18.1649 15.5007 18.2169 15.7203 18.1807 15.9443C18.11 16.38 17.7333 16.7001 17.292 16.7002C15.3636 16.7002 13.801 18.2631 13.8008 20.1914C13.8008 22.1198 15.3641 23.6836 17.292 23.6836C17.7889 23.6837 18.1913 24.0861 18.1914 24.583C18.1914 25.08 17.789 25.4833 17.292 25.4834C14.3702 25.4834 12 23.1141 12 20.1914C12.0002 17.6425 13.8025 15.5149 16.2021 15.0127C16.1804 14.7037 16.1707 14.318 16.1777 13.833C16.225 10.5289 19.3528 8.09969 22.9277 8.09961ZM17.8936 15.1357C17.8894 15.1319 17.8862 15.1269 17.8818 15.123C17.8793 15.1208 17.8767 15.1185 17.874 15.1162C17.881 15.1222 17.8867 15.1296 17.8936 15.1357ZM17.8408 15.0889C17.8133 15.0673 17.7829 15.0455 17.749 15.0254C17.7443 15.0226 17.7392 15.0203 17.7344 15.0176C17.7719 15.0388 17.8072 15.0629 17.8408 15.0889ZM17.709 15.0039C17.6953 14.9967 17.6815 14.9891 17.667 14.9824C17.6525 14.9758 17.6372 14.9698 17.6221 14.9639C17.6146 14.9609 17.6072 14.9578 17.5996 14.9551C17.5958 14.9537 17.5918 14.9515 17.5879 14.9502C17.586 14.9495 17.583 14.9486 17.582 14.9482H17.5811C17.6258 14.9634 17.6682 14.9826 17.709 15.0039Z" fill="#636CCC"></path>
<path d="M28.2314 21.584L28.208 21.5615C28.2004 21.6218 28.192 21.6818 28.1816 21.7412C28.1714 21.8003 28.1594 21.8589 28.1465 21.917C28.1206 22.0336 28.0897 22.1483 28.0537 22.2607C28.0176 22.3734 27.9764 22.4838 27.9307 22.5918C27.8622 22.7533 27.783 22.9091 27.6943 23.0586C27.6648 23.1084 27.6342 23.1577 27.6025 23.2061C27.5073 23.3515 27.4023 23.49 27.2891 23.6211C27.2514 23.6647 27.2134 23.7081 27.1738 23.75C27.0946 23.8339 27.0111 23.9136 26.9248 23.9902C26.2349 24.6031 25.3268 24.9756 24.3311 24.9756L24.1299 24.9707C23.9981 24.964 23.8682 24.9501 23.7402 24.9307C23.722 24.9279 23.7037 24.9249 23.6855 24.9219C23.6397 24.9143 23.5941 24.9067 23.5488 24.8975C23.5101 24.8896 23.4719 24.8801 23.4336 24.8711C23.4117 24.866 23.3899 24.861 23.3682 24.8555C23.3311 24.8461 23.2944 24.8356 23.2578 24.8252C23.2314 24.8177 23.2049 24.8108 23.1787 24.8027C23.1636 24.7981 23.1489 24.792 23.1338 24.7871C22.9062 24.7139 22.6877 24.6214 22.4805 24.5098C22.4635 24.5006 22.4465 24.4918 22.4297 24.4824C22.3959 24.4636 22.3622 24.4446 22.3291 24.4248C22.3027 24.409 22.2769 24.3923 22.251 24.376C22.2161 24.354 22.1816 24.3316 22.1475 24.3086C22.1424 24.3052 22.1378 24.3013 22.1328 24.2979L18.457 28.0908C18.4622 28.1068 18.4679 28.1226 18.4727 28.1387C18.4787 28.1589 18.4829 28.1797 18.4883 28.2002C18.5296 28.3578 18.5537 28.5228 18.5537 28.6934C18.5537 28.858 18.5308 29.0172 18.4922 29.1699C18.4849 29.1987 18.4783 29.2276 18.4697 29.2559C18.462 29.2813 18.453 29.3061 18.4443 29.3311C18.4321 29.3663 18.4195 29.4013 18.4053 29.4355C18.3977 29.4538 18.3889 29.4713 18.3809 29.4893C18.3637 29.5274 18.3457 29.5648 18.3262 29.6016C18.3167 29.6194 18.3069 29.6368 18.2969 29.6543C18.2768 29.6894 18.2565 29.7242 18.2344 29.7578C18.2211 29.7779 18.2063 29.7968 18.1924 29.8164C18.171 29.8464 18.15 29.8766 18.127 29.9053C18.1131 29.9226 18.0984 29.9392 18.084 29.9561C18.059 29.9851 18.0335 30.0135 18.0068 30.041C17.9903 30.0581 17.9732 30.0744 17.9561 30.0908C17.9294 30.1164 17.9021 30.141 17.874 30.165C17.8568 30.1798 17.84 30.1948 17.8223 30.209C17.7937 30.2318 17.7642 30.2532 17.7344 30.2744C17.7134 30.2893 17.6925 30.3043 17.6709 30.3184C17.6399 30.3385 17.6083 30.3575 17.5762 30.376C17.5565 30.3873 17.5368 30.3985 17.5166 30.4092C17.484 30.4264 17.4506 30.4417 17.417 30.457C17.3937 30.4677 17.3705 30.4785 17.3467 30.4883C17.3181 30.5 17.289 30.5102 17.2598 30.5205C17.2293 30.5313 17.1991 30.5425 17.168 30.5518C17.1454 30.5585 17.1225 30.5634 17.0996 30.5693C17.0611 30.5793 17.0228 30.59 16.9834 30.5977C16.9647 30.6013 16.9456 30.6024 16.9268 30.6055C16.886 30.6121 16.8453 30.62 16.8037 30.624C16.741 30.6301 16.6776 30.6338 16.6133 30.6338L16.4141 30.624C16.3516 30.6177 16.2901 30.6078 16.2295 30.5957C16.2147 30.5927 16.2002 30.5883 16.1855 30.585C16.1407 30.5749 16.0964 30.5639 16.0527 30.5508C16.0337 30.545 16.0149 30.5385 15.9961 30.5322C15.9587 30.5197 15.9221 30.5059 15.8857 30.4912C15.8634 30.4822 15.8413 30.4727 15.8193 30.4629C15.7856 30.4478 15.7524 30.432 15.7197 30.415C15.7016 30.4056 15.6838 30.3957 15.666 30.3857C15.6334 30.3675 15.6017 30.3482 15.5703 30.3281C15.5475 30.3135 15.5241 30.2997 15.502 30.2842C15.4764 30.2663 15.4524 30.2466 15.4277 30.2275C15.4082 30.2125 15.388 30.1984 15.3691 30.1826C15.2792 30.1075 15.1961 30.0246 15.1211 29.9346C15.1064 29.9169 15.0932 29.8981 15.0791 29.8799C15.0572 29.8516 15.035 29.8235 15.0146 29.7939C15.0017 29.7751 14.9899 29.7556 14.9775 29.7363C14.9571 29.7044 14.9375 29.6719 14.9189 29.6387C14.9074 29.6181 14.8965 29.5972 14.8857 29.5762C14.8704 29.5463 14.8556 29.5161 14.8418 29.4854C14.8315 29.4625 14.8219 29.4394 14.8125 29.416C14.7993 29.3832 14.7868 29.3501 14.7754 29.3164C14.7676 29.2934 14.7599 29.2704 14.7529 29.2471C14.7406 29.2056 14.7293 29.1637 14.7197 29.1211C14.7161 29.1049 14.7122 29.0886 14.709 29.0723C14.6972 29.0129 14.6879 28.9527 14.6816 28.8916L14.6719 28.6934C14.6719 28.6264 14.675 28.5603 14.6816 28.4951C14.6949 28.3646 14.721 28.2378 14.7588 28.1162C14.8155 27.9337 14.8982 27.7624 15.0029 27.6074C15.3518 27.0911 15.9433 26.752 16.6133 26.752L16.8115 26.7617C16.873 26.768 16.9335 26.7772 16.9932 26.7891C17.0258 26.7955 17.0578 26.8044 17.0898 26.8125C17.1169 26.8194 17.1443 26.825 17.1709 26.833L20.916 22.9688C20.9021 22.9438 20.8884 22.9188 20.875 22.8936C20.8569 22.8594 20.8394 22.8248 20.8223 22.79C20.8147 22.7746 20.8062 22.7597 20.7988 22.7441C20.7791 22.7027 20.7614 22.6604 20.7432 22.6182C20.7346 22.5984 20.726 22.5786 20.7178 22.5586C20.6773 22.4608 20.64 22.3614 20.6074 22.2598C20.6017 22.2419 20.5963 22.224 20.5908 22.2061C20.5594 22.1027 20.5327 21.9974 20.5098 21.8906C20.5061 21.8733 20.5015 21.8562 20.498 21.8389C20.448 21.5892 20.4219 21.3308 20.4219 21.0664C20.4219 20.985 20.4258 20.9043 20.4307 20.8242C20.4329 20.7873 20.4352 20.7505 20.4385 20.7139C20.4437 20.6559 20.4493 20.5982 20.457 20.541C20.4786 20.3809 20.5095 20.2237 20.5498 20.0703C20.553 20.0582 20.5563 20.0462 20.5596 20.0342C20.6156 19.8293 20.6884 19.6314 20.7754 19.4414C20.7808 19.4296 20.7865 19.418 20.792 19.4062C20.8209 19.3447 20.8537 19.2853 20.8857 19.2256C20.9058 19.1882 20.9241 19.1499 20.9453 19.1133C20.9802 19.0531 21.0178 18.9947 21.0557 18.9365C21.0797 18.8997 21.1027 18.8622 21.1279 18.8262C21.1588 18.7822 21.192 18.7399 21.2246 18.6973C21.2619 18.6484 21.2993 18.5997 21.3389 18.5527C21.3726 18.5127 21.4091 18.4752 21.4443 18.4365C21.4812 18.3962 21.5172 18.3552 21.5557 18.3164C21.5938 18.278 21.6332 18.2409 21.6729 18.2041C21.7171 18.163 21.7615 18.122 21.8076 18.083C21.8416 18.0543 21.8772 18.0276 21.9121 18C21.963 17.9599 22.0136 17.9195 22.0664 17.8818C22.1117 17.8496 22.1584 17.8194 22.2051 17.7891C22.248 17.7612 22.2909 17.7333 22.335 17.707C22.3874 17.6758 22.4411 17.6469 22.4951 17.6182C22.5412 17.5936 22.5876 17.5696 22.6348 17.5469C22.7125 17.5093 22.7906 17.4719 22.8711 17.4395C22.873 17.4387 22.875 17.4383 22.877 17.4375L23.0176 17.3848C23.0741 17.3646 23.1308 17.3447 23.1885 17.3271C23.1916 17.3262 23.1951 17.3262 23.1982 17.3252C23.3582 17.2769 23.5226 17.2386 23.6904 17.2109L28.4541 16.1846L28.2314 21.584ZM26.1875 18.4785C25.929 18.6296 25.1538 19.2299 24.8584 19.46C24.7888 19.5142 24.7454 19.5473 24.7422 19.5498L22.5 21.8535C22.4771 21.8783 22.4567 21.9049 22.4385 21.9326C22.3581 22.0544 22.3246 22.2002 22.3428 22.3408C22.4379 22.3826 22.5274 22.441 22.6064 22.5176C22.6896 22.5981 22.7536 22.6907 22.7988 22.79C22.8203 22.7911 22.8418 22.7912 22.8633 22.79C23.124 22.7751 23.3718 22.6044 23.376 22.6016C23.3843 22.592 24.4737 21.3333 25.0576 20.6133C25.2098 20.4257 25.3285 20.2754 25.3838 20.1924H25.3848C25.5057 20.011 25.7448 19.6035 25.9434 19.2305C26.0241 19.0788 26.0987 18.9331 26.1543 18.8096C26.1841 18.7433 26.2079 18.6833 26.2256 18.6328C26.249 18.5662 26.2605 18.5166 26.2559 18.4883C26.251 18.4591 26.2308 18.4532 26.1875 18.4785Z" fill="#3B4181"></path>
<g filter="url(#filter0_f_536_5409)">
<ellipse cx="25.5" cy="50" rx="11.5" ry="2" fill="#636CCC"></ellipse>
</g>
<defs>
<filter id="filter0_f_536_5409" x="6" y="40" width="39" height="20" filterUnits="userSpaceOnUse" color-interpolation-filters="sRGB">
<feFlood flood-opacity="0" result="BackgroundImageFix"></feFlood>
<feBlend mode="normal" in="SourceGraphic" in2="BackgroundImageFix" result="shape"></feBlend>
<feGaussianBlur stdDeviation="4" result="effect1_foregroundBlur_536_5409"></feGaussianBlur>
</filter>
</defs>
</svg>