<svg width="50" height="60" viewBox="0 0 50 60" fill="none" xmlns="http://www.w3.org/2000/svg">
<path d="M24.6182 0C35.9147 0 45.073 9.15758 45.0732 20.4541C45.0732 28.5977 40.3134 35.6288 33.4248 38.9199C33.4238 38.9201 33.4229 38.9207 33.4219 38.9209C32.9642 39.1395 32.4972 39.3416 32.0215 39.5264C31.3749 39.9051 30.6463 40.4459 30.0781 41.1113L25.1113 49.7158C24.8926 50.0946 24.3456 50.0946 24.127 49.7158L19.1631 41.1211C18.5922 40.4496 17.858 39.904 17.207 39.5234C16.735 39.3398 16.2717 39.1388 15.8174 38.9219C15.8145 38.9214 15.8114 38.9213 15.8086 38.9209L15.8105 38.9189C8.92291 35.6275 4.16406 28.597 4.16406 20.4541C4.16428 9.15771 13.3218 0.000216478 24.6182 0Z" fill="#EC8913"></path>
<circle cx="24.5454" cy="20.3794" r="17.0454" fill="white"></circle>
<path d="M25.6638 19.6671L20.3307 24.0005C20.1085 23.0005 19.7307 20.5337 21.3307 18.667C22.9306 16.8003 27.4415 16.556 29.3303 16.6671C29.4414 18.1115 29.197 21.6005 27.3304 24.0005C25.4638 26.4006 22.775 25.8894 21.664 25.3339L20.664 26.3339C20.1307 26.6006 19.7752 26.2228 19.6641 26.0006L25.6638 19.6671Z" fill="#8A5C00"></path>
<path d="M32.6659 14.198C29.6128 13.6205 26.7499 12.2856 24.3329 10.3138C21.9159 12.2856 19.0531 13.6205 16 14.198V21.5556C15.9936 23.909 17.0537 25.9987 18.7127 27.7965C20.265 29.4787 22.3027 30.858 24.3303 31.8832C26.3403 30.8576 28.3756 29.4786 29.9317 27.7959C31.596 25.9961 32.6659 23.9052 32.6659 21.5523V14.198ZM34.6659 21.5523C34.6659 24.5556 33.2914 27.109 31.4004 29.154C29.5136 31.1943 27.0659 32.7836 24.7704 33.8995C24.4957 34.0331 24.1747 34.034 23.8994 33.9015C21.5799 32.7851 19.1269 31.1951 17.2427 29.1533C15.3539 27.1065 13.9918 24.5523 14 21.5497V13.351C14 12.8526 14.3672 12.4303 14.8607 12.3607C18.129 11.9003 21.1922 10.4725 23.6657 8.25521L23.7392 8.19531C24.1167 7.91627 24.6442 7.93623 25.0002 8.25521C27.4737 10.4725 30.5369 11.9003 33.8052 12.3607C34.2987 12.4303 34.6659 12.8526 34.6659 13.351V21.5523Z" fill="#EC8913"></path>
<g filter="url(#filter0_f_536_5408)">
<ellipse cx="24.5" cy="50" rx="11.5" ry="2" fill="#BE6700"></ellipse>
</g>
<defs>
<filter id="filter0_f_536_5408" x="5" y="40" width="39" height="20" filterUnits="userSpaceOnUse" color-interpolation-filters="sRGB">
<feFlood flood-opacity="0" result="BackgroundImageFix"></feFlood>
<feBlend mode="normal" in="SourceGraphic" in2="BackgroundImageFix" result="shape"></feBlend>
<feGaussianBlur stdDeviation="4" result="effect1_foregroundBlur_536_5408"></feGaussianBlur>
</filter>
</defs>
</svg>