<svg width="44" height="44" viewBox="0 0 44 44" fill="none" xmlns="http://www.w3.org/2000/svg">
<path d="M8.98359 29.5138C1.83359 22.3638 1.83359 10.6305 8.98359 3.48047" stroke="#DE3412" stroke-width="3.66667" stroke-linecap="round" stroke-linejoin="round"/>
<path d="M14.3001 8.61719C12.5608 10.4193 11.4722 12.75 11.2066 15.2404C10.9409 17.7309 11.5134 20.2387 12.8334 22.3672" stroke="#DE3412" stroke-width="3.66667" stroke-linecap="round" stroke-linejoin="round"/>
<path d="M22.0002 20.1654C24.0252 20.1654 25.6668 18.5237 25.6668 16.4987C25.6668 14.4737 24.0252 12.832 22.0002 12.832C19.9751 12.832 18.3335 14.4737 18.3335 16.4987C18.3335 18.5237 19.9751 20.1654 22.0002 20.1654Z" stroke="#DE3412" stroke-width="3.66667" stroke-linecap="round" stroke-linejoin="round"/>
<path d="M29.7002 8.80078C33.3669 12.4674 33.8435 18.1691 31.1669 22.4958" stroke="#DE3412" stroke-width="3.66667" stroke-linecap="round" stroke-linejoin="round"/>
<path d="M35.0166 3.48047C36.7162 5.17655 38.0645 7.19118 38.9845 9.40902C39.9045 11.6269 40.3781 14.0044 40.3781 16.4055C40.3781 18.8066 39.9045 21.1841 38.9845 23.4019C38.0645 25.6198 36.7162 27.6344 35.0166 29.3305" stroke="#DE3412" stroke-width="3.66667" stroke-linecap="round" stroke-linejoin="round"/>
<path d="M17.4165 33H26.5832" stroke="#DE3412" stroke-width="3.66667" stroke-linecap="round" stroke-linejoin="round"/>
<path d="M14.6665 40.3346L21.9998 20.168L29.3332 40.3346" stroke="#DE3412" stroke-width="3.66667" stroke-linecap="round" stroke-linejoin="round"/>
</svg>
